<svg width="23" height="44" viewBox="0 0 23 44" fill="none" xmlns="http://www.w3.org/2000/svg">
<path d="M11.2244 8.46023C12.392 8.46875 13.5426 8.68182 14.6761 9.09943C15.8097 9.51704 16.8324 10.1989 17.7443 11.1449C18.6648 12.0909 19.3977 13.3693 19.9432 14.9801C20.4972 16.5824 20.7784 18.5767 20.7869 20.9631C20.7869 23.2557 20.5568 25.2969 20.0966 27.0866C19.6364 28.8679 18.9759 30.3722 18.1151 31.5994C17.2628 32.8267 16.2273 33.7599 15.0085 34.3991C13.7898 35.0384 12.4176 35.358 10.892 35.358C9.33239 35.358 7.94744 35.0511 6.73722 34.4375C5.52699 33.8239 4.54261 32.9759 3.78409 31.8935C3.02557 30.8026 2.55256 29.5497 2.36506 28.1349H6.2642C6.51989 29.2599 7.03977 30.1719 7.82386 30.8707C8.61648 31.5611 9.6392 31.9062 10.892 31.9062C12.8097 31.9062 14.3054 31.071 15.3793 29.4006C16.4531 27.7216 16.9943 25.3778 17.0028 22.3693H16.7983C16.3551 23.1023 15.8011 23.733 15.1364 24.2614C14.4801 24.7898 13.7429 25.1989 12.9247 25.4886C12.1065 25.7784 11.233 25.9233 10.304 25.9233C8.79545 25.9233 7.4233 25.5526 6.1875 24.8111C4.9517 24.0696 3.96733 23.0511 3.23438 21.7557C2.50142 20.4602 2.13494 18.9815 2.13494 17.3196C2.13494 15.6662 2.50994 14.1662 3.25994 12.8196C4.01847 11.473 5.07528 10.4077 6.4304 9.62358C7.79403 8.83096 9.39205 8.44318 11.2244 8.46023ZM11.2372 11.7841C10.2401 11.7841 9.34091 12.0312 8.53977 12.5256C7.74716 13.0114 7.12074 13.6719 6.66051 14.5071C6.20028 15.3338 5.97017 16.2543 5.97017 17.2685C5.97017 18.2827 6.19176 19.2031 6.63494 20.0298C7.08665 20.848 7.70028 21.5 8.47585 21.9858C9.25994 22.4631 10.1548 22.7017 11.1605 22.7017C11.9105 22.7017 12.6094 22.5568 13.2571 22.267C13.9048 21.9773 14.4716 21.5767 14.9574 21.0653C15.4432 20.5455 15.8224 19.9574 16.0952 19.3011C16.3679 18.6449 16.5043 17.9545 16.5043 17.2301C16.5043 16.267 16.2741 15.3722 15.8139 14.5455C15.3622 13.7187 14.7401 13.054 13.9474 12.5511C13.1548 12.0398 12.2514 11.7841 11.2372 11.7841Z" fill="black"/>
</svg>
