<svg width="80" height="80" viewBox="0 0 80 80" fill="none" xmlns="http://www.w3.org/2000/svg">
<rect width="80" height="80" rx="40" fill="#454545"/>
<path d="M40.0881 53.2429C39.3892 53.2429 38.7884 52.9957 38.2855 52.5014C37.7827 51.9986 37.5312 51.3935 37.5312 50.6861C37.5312 49.9872 37.7827 49.3906 38.2855 48.8963C38.7884 48.3935 39.3892 48.142 40.0881 48.142C40.7869 48.142 41.3878 48.3935 41.8906 48.8963C42.3935 49.3906 42.6449 49.9872 42.6449 50.6861C42.6449 51.1548 42.5256 51.5852 42.2869 51.9773C42.0568 52.3608 41.75 52.6676 41.3665 52.8977C40.983 53.1278 40.5568 53.2429 40.0881 53.2429Z" fill="white"/>
</svg>
