<svg width="80" height="80" viewBox="0 0 80 80" fill="none" xmlns="http://www.w3.org/2000/svg">
<rect width="80" height="80" rx="40" fill="#454545"/>
<path d="M45.1847 48.0909V46.7102C45.1847 45.7216 45.3892 44.8182 45.7983 44C46.2159 43.1733 46.821 42.5128 47.6136 42.0185C48.4148 41.5156 49.3821 41.2642 50.5156 41.2642C51.6747 41.2642 52.6463 41.5114 53.4304 42.0057C54.2145 42.5 54.8068 43.1605 55.2074 43.9872C55.6165 44.8139 55.821 45.7216 55.821 46.7102V48.0909C55.821 49.0795 55.6165 49.9872 55.2074 50.8139C54.7983 51.6321 54.1974 52.2926 53.4048 52.7955C52.6207 53.2898 51.6577 53.5369 50.5156 53.5369C49.3651 53.5369 48.3935 53.2898 47.6009 52.7955C46.8082 52.2926 46.2074 51.6321 45.7983 50.8139C45.3892 49.9872 45.1847 49.0795 45.1847 48.0909ZM48.1634 46.7102V48.0909C48.1634 48.8239 48.3381 49.4886 48.6875 50.0852C49.0369 50.6818 49.6463 50.9801 50.5156 50.9801C51.3764 50.9801 51.9773 50.6818 52.3182 50.0852C52.6591 49.4886 52.8295 48.8239 52.8295 48.0909V46.7102C52.8295 45.9773 52.6634 45.3125 52.331 44.7159C52.0071 44.1193 51.402 43.821 50.5156 43.821C49.6634 43.821 49.0582 44.1193 48.7003 44.7159C48.3423 45.3125 48.1634 45.9773 48.1634 46.7102ZM32.017 33.108V31.7273C32.017 30.7386 32.2216 29.831 32.6307 29.0043C33.0483 28.1776 33.6534 27.517 34.446 27.0227C35.2472 26.5284 36.2145 26.2812 37.348 26.2812C38.5071 26.2812 39.4787 26.5284 40.2628 27.0227C41.0469 27.517 41.6392 28.1776 42.0398 29.0043C42.4403 29.831 42.6406 30.7386 42.6406 31.7273V33.108C42.6406 34.0966 42.4361 35.0043 42.027 35.831C41.6264 36.6491 41.0298 37.3097 40.2372 37.8125C39.4531 38.3068 38.4901 38.554 37.348 38.554C36.1889 38.554 35.2131 38.3068 34.4205 37.8125C33.6364 37.3097 33.0398 36.6491 32.6307 35.831C32.2216 35.0043 32.017 34.0966 32.017 33.108ZM35.0085 31.7273V33.108C35.0085 33.8409 35.179 34.5057 35.5199 35.1023C35.8693 35.6989 36.4787 35.9972 37.348 35.9972C38.2003 35.9972 38.7969 35.6989 39.1378 35.1023C39.4872 34.5057 39.6619 33.8409 39.6619 33.108V31.7273C39.6619 30.9943 39.4957 30.3295 39.1634 29.733C38.831 29.1364 38.2259 28.8381 37.348 28.8381C36.4957 28.8381 35.8906 29.1364 35.5327 29.733C35.1832 30.3295 35.0085 30.9943 35.0085 31.7273ZM33.2315 53L51.2315 26.8182H54.2869L36.2869 53H33.2315Z" fill="white"/>
</svg>
