<svg width="80" height="80" viewBox="0 0 80 80" fill="none" xmlns="http://www.w3.org/2000/svg">
<rect width="80" height="80" rx="40" fill="#454545"/>
<path d="M39.1605 53.358C37.5582 53.358 36.1179 53.0511 34.8395 52.4375C33.5696 51.8153 32.5554 50.9631 31.7969 49.8807C31.0384 48.7983 30.6335 47.5625 30.5824 46.1733H34.4176C34.5114 47.2983 35.0099 48.223 35.9134 48.9474C36.8168 49.6719 37.8991 50.0341 39.1605 50.0341C40.1662 50.0341 41.0568 49.804 41.8324 49.3438C42.6165 48.875 43.2301 48.2315 43.6733 47.4134C44.125 46.5952 44.3509 45.6619 44.3509 44.6136C44.3509 43.5483 44.1207 42.598 43.6605 41.7628C43.2003 40.9276 42.5653 40.2713 41.7557 39.794C40.9545 39.3168 40.0341 39.0739 38.9943 39.0653C38.2017 39.0653 37.4048 39.2017 36.6037 39.4744C35.8026 39.7472 35.1548 40.1051 34.6605 40.5483L31.0426 40.0114L32.5128 26.8182H46.9077V30.206H35.7983L34.9673 37.5312H35.1207C35.6321 37.0369 36.3097 36.6236 37.1534 36.2912C38.0057 35.9588 38.9176 35.7926 39.8892 35.7926C41.483 35.7926 42.902 36.1719 44.1463 36.9304C45.3991 37.6889 46.3835 38.7244 47.0994 40.0369C47.8239 41.3409 48.1818 42.8409 48.1733 44.5369C48.1818 46.233 47.7983 47.7457 47.0227 49.0753C46.2557 50.4048 45.1903 51.4531 43.8267 52.2202C42.4716 52.9787 40.9162 53.358 39.1605 53.358Z" fill="white"/>
</svg>
