<svg width="27" height="44" viewBox="0 0 27 44" fill="none" xmlns="http://www.w3.org/2000/svg">
<path d="M24.6222 17.3324H20.6335C20.4801 16.4801 20.1946 15.7301 19.777 15.0824C19.3594 14.4347 18.848 13.8849 18.2429 13.4332C17.6378 12.9815 16.9602 12.6406 16.2102 12.4105C15.4688 12.1804 14.6804 12.0653 13.8452 12.0653C12.3366 12.0653 10.9858 12.4446 9.79261 13.2031C8.60795 13.9616 7.67045 15.0739 6.98011 16.5398C6.2983 18.0057 5.95739 19.7955 5.95739 21.9091C5.95739 24.0398 6.2983 25.8381 6.98011 27.304C7.67045 28.7699 8.61222 29.8778 9.8054 30.6278C10.9986 31.3778 12.3409 31.7528 13.8324 31.7528C14.6591 31.7528 15.4432 31.642 16.1847 31.4205C16.9347 31.1903 17.6122 30.8537 18.2173 30.4105C18.8224 29.9673 19.3338 29.4261 19.7514 28.7869C20.1776 28.1392 20.4716 27.3977 20.6335 26.5625L24.6222 26.5753C24.4091 27.8622 23.9957 29.0469 23.3821 30.1293C22.777 31.2031 21.9972 32.1321 21.0426 32.9162C20.0966 33.6918 19.0142 34.2926 17.7955 34.7188C16.5767 35.1449 15.2472 35.358 13.8068 35.358C11.5398 35.358 9.51989 34.821 7.74716 33.7472C5.97443 32.6648 4.5767 31.1179 3.55398 29.1065C2.53977 27.0952 2.03267 24.696 2.03267 21.9091C2.03267 19.1136 2.54403 16.7145 3.56676 14.7116C4.58949 12.7003 5.98722 11.1577 7.75994 10.0838C9.53267 9.00142 11.5483 8.46023 13.8068 8.46023C15.196 8.46023 16.4915 8.66051 17.6932 9.06108C18.9034 9.45312 19.9901 10.0327 20.9531 10.7997C21.9162 11.5582 22.7131 12.4872 23.3438 13.5866C23.9744 14.6776 24.4006 15.9261 24.6222 17.3324Z" fill="black"/>
</svg>
