<svg width="80" height="80" viewBox="0 0 80 80" fill="none" xmlns="http://www.w3.org/2000/svg">
<rect width="80" height="80" rx="40" fill="#454545"/>
<path d="M38.2244 26.4602C39.392 26.4687 40.5426 26.6818 41.6761 27.0994C42.8097 27.517 43.8324 28.1989 44.7443 29.1449C45.6648 30.0909 46.3977 31.3693 46.9432 32.9801C47.4972 34.5824 47.7784 36.5767 47.7869 38.9631C47.7869 41.2557 47.5568 43.2969 47.0966 45.0866C46.6364 46.8679 45.9759 48.3722 45.1151 49.5994C44.2628 50.8267 43.2273 51.7599 42.0085 52.3991C40.7898 53.0384 39.4176 53.358 37.892 53.358C36.3324 53.358 34.9474 53.0511 33.7372 52.4375C32.527 51.8239 31.5426 50.9759 30.7841 49.8935C30.0256 48.8026 29.5526 47.5497 29.3651 46.1349H33.2642C33.5199 47.2599 34.0398 48.1719 34.8239 48.8707C35.6165 49.5611 36.6392 49.9062 37.892 49.9062C39.8097 49.9062 41.3054 49.071 42.3793 47.4006C43.4531 45.7216 43.9943 43.3778 44.0028 40.3693H43.7983C43.3551 41.1023 42.8011 41.733 42.1364 42.2614C41.4801 42.7898 40.7429 43.1989 39.9247 43.4886C39.1065 43.7784 38.233 43.9233 37.304 43.9233C35.7955 43.9233 34.4233 43.5526 33.1875 42.8111C31.9517 42.0696 30.9673 41.0511 30.2344 39.7557C29.5014 38.4602 29.1349 36.9815 29.1349 35.3196C29.1349 33.6662 29.5099 32.1662 30.2599 30.8196C31.0185 29.473 32.0753 28.4077 33.4304 27.6236C34.794 26.831 36.392 26.4432 38.2244 26.4602ZM38.2372 29.7841C37.2401 29.7841 36.3409 30.0312 35.5398 30.5256C34.7472 31.0114 34.1207 31.6719 33.6605 32.5071C33.2003 33.3338 32.9702 34.2543 32.9702 35.2685C32.9702 36.2827 33.1918 37.2031 33.6349 38.0298C34.0866 38.848 34.7003 39.5 35.4759 39.9858C36.2599 40.4631 37.1548 40.7017 38.1605 40.7017C38.9105 40.7017 39.6094 40.5568 40.2571 40.267C40.9048 39.9773 41.4716 39.5767 41.9574 39.0653C42.4432 38.5455 42.8224 37.9574 43.0952 37.3011C43.3679 36.6449 43.5043 35.9545 43.5043 35.2301C43.5043 34.267 43.2741 33.3722 42.8139 32.5455C42.3622 31.7187 41.7401 31.054 40.9474 30.5511C40.1548 30.0398 39.2514 29.7841 38.2372 29.7841Z" fill="white"/>
</svg>
