<svg width="30" height="44" viewBox="0 0 30 44" fill="none" xmlns="http://www.w3.org/2000/svg">
<path d="M16.1847 30.0909V28.7102C16.1847 27.7216 16.3892 26.8182 16.7983 26C17.2159 25.1733 17.821 24.5128 18.6136 24.0185C19.4148 23.5156 20.3821 23.2642 21.5156 23.2642C22.6747 23.2642 23.6463 23.5114 24.4304 24.0057C25.2145 24.5 25.8068 25.1605 26.2074 25.9872C26.6165 26.8139 26.821 27.7216 26.821 28.7102V30.0909C26.821 31.0795 26.6165 31.9872 26.2074 32.8139C25.7983 33.6321 25.1974 34.2926 24.4048 34.7955C23.6207 35.2898 22.6577 35.5369 21.5156 35.5369C20.3651 35.5369 19.3935 35.2898 18.6009 34.7955C17.8082 34.2926 17.2074 33.6321 16.7983 32.8139C16.3892 31.9872 16.1847 31.0795 16.1847 30.0909ZM19.1634 28.7102V30.0909C19.1634 30.8239 19.3381 31.4886 19.6875 32.0852C20.0369 32.6818 20.6463 32.9801 21.5156 32.9801C22.3764 32.9801 22.9773 32.6818 23.3182 32.0852C23.6591 31.4886 23.8295 30.8239 23.8295 30.0909V28.7102C23.8295 27.9773 23.6634 27.3125 23.331 26.7159C23.0071 26.1193 22.402 25.821 21.5156 25.821C20.6634 25.821 20.0582 26.1193 19.7003 26.7159C19.3423 27.3125 19.1634 27.9773 19.1634 28.7102ZM3.01705 15.108V13.7273C3.01705 12.7386 3.22159 11.831 3.63068 11.0043C4.0483 10.1776 4.65341 9.51705 5.44602 9.02273C6.24716 8.52841 7.21449 8.28125 8.34801 8.28125C9.5071 8.28125 10.4787 8.52841 11.2628 9.02273C12.0469 9.51705 12.6392 10.1776 13.0398 11.0043C13.4403 11.831 13.6406 12.7386 13.6406 13.7273V15.108C13.6406 16.0966 13.4361 17.0043 13.027 17.831C12.6264 18.6491 12.0298 19.3097 11.2372 19.8125C10.4531 20.3068 9.49006 20.554 8.34801 20.554C7.18892 20.554 6.21307 20.3068 5.42045 19.8125C4.63636 19.3097 4.03977 18.6491 3.63068 17.831C3.22159 17.0043 3.01705 16.0966 3.01705 15.108ZM6.00852 13.7273V15.108C6.00852 15.8409 6.17898 16.5057 6.51989 17.1023C6.86932 17.6989 7.47869 17.9972 8.34801 17.9972C9.20028 17.9972 9.79688 17.6989 10.1378 17.1023C10.4872 16.5057 10.6619 15.8409 10.6619 15.108V13.7273C10.6619 12.9943 10.4957 12.3295 10.1634 11.733C9.83097 11.1364 9.22585 10.8381 8.34801 10.8381C7.49574 10.8381 6.89063 11.1364 6.53267 11.733C6.18324 12.3295 6.00852 12.9943 6.00852 13.7273ZM4.23153 35L22.2315 8.81818H25.2869L7.28693 35H4.23153Z" fill="black"/>
</svg>
