<svg width="80" height="80" viewBox="0 0 80 80" fill="none" xmlns="http://www.w3.org/2000/svg">
<rect width="80" height="80" rx="40" fill="#454545"/>
<path d="M38.6335 50.358C36.8778 50.358 35.3097 50.0554 33.929 49.4503C32.5568 48.8452 31.4702 48.0057 30.669 46.9318C29.8764 45.8494 29.4503 44.5966 29.3906 43.1733H33.4048C33.456 43.9489 33.7159 44.6222 34.1847 45.1932C34.6619 45.7557 35.2841 46.1903 36.0511 46.4972C36.8182 46.804 37.6705 46.9574 38.608 46.9574C39.6392 46.9574 40.5511 46.7784 41.3438 46.4205C42.1449 46.0625 42.7713 45.5639 43.223 44.9247C43.6747 44.277 43.9006 43.5312 43.9006 42.6875C43.9006 41.8097 43.6747 41.0384 43.223 40.3736C42.7798 39.7003 42.1278 39.1719 41.267 38.7884C40.4148 38.4048 39.3835 38.2131 38.1733 38.2131H35.9616V34.9915H38.1733C39.1449 34.9915 39.9972 34.8168 40.7301 34.4673C41.4716 34.1179 42.0511 33.6321 42.4688 33.0099C42.8864 32.3793 43.0952 31.642 43.0952 30.7983C43.0952 29.9886 42.9119 29.2855 42.5455 28.6889C42.1875 28.0838 41.6761 27.6108 41.0114 27.2699C40.3551 26.929 39.5795 26.7585 38.6847 26.7585C37.8324 26.7585 37.0355 26.9162 36.294 27.2315C35.5611 27.5384 34.9645 27.9815 34.5043 28.5611C34.044 29.1321 33.7969 29.8182 33.7628 30.6193H29.9403C29.983 29.2045 30.4006 27.9602 31.1932 26.8864C31.9943 25.8125 33.0511 24.973 34.3636 24.3679C35.6761 23.7628 37.1335 23.4602 38.7358 23.4602C40.4148 23.4602 41.8636 23.7884 43.0824 24.4446C44.3097 25.0923 45.2557 25.9574 45.9205 27.0398C46.5938 28.1222 46.9261 29.3068 46.9176 30.5938C46.9261 32.0597 46.517 33.304 45.6903 34.3267C44.8722 35.3494 43.7813 36.0355 42.4176 36.3849V36.5895C44.1563 36.8537 45.5028 37.544 46.4574 38.6605C47.4205 39.777 47.8977 41.1619 47.8892 42.8153C47.8977 44.2557 47.4972 45.5469 46.6875 46.6889C45.8864 47.831 44.7912 48.7301 43.402 49.3864C42.0128 50.0341 40.4233 50.358 38.6335 50.358Z" fill="white"/>
</svg>
