<svg width="80" height="80" viewBox="0 0 80 80" fill="none" xmlns="http://www.w3.org/2000/svg">
<rect width="80" height="80" rx="40" fill="#454545"/>
<path d="M39.3651 53.358C37.5327 53.358 35.9134 53.0426 34.5071 52.4119C33.1094 51.7812 32.0142 50.9119 31.2216 49.804C30.429 48.696 30.0369 47.4347 30.0455 46.0199C30.0369 44.9119 30.2628 43.8935 30.723 42.9645C31.1918 42.027 31.8267 41.2472 32.6278 40.625C33.429 39.9943 34.3239 39.5938 35.3125 39.4233V39.2699C34.0085 38.9545 32.9645 38.2557 32.1804 37.1733C31.3963 36.0909 31.0085 34.8466 31.017 33.4403C31.0085 32.1023 31.3622 30.9091 32.0781 29.8608C32.8026 28.804 33.7955 27.973 35.0568 27.3679C36.3182 26.7628 37.7543 26.4602 39.3651 26.4602C40.9588 26.4602 42.3821 26.767 43.6349 27.3807C44.8963 27.9858 45.8892 28.8168 46.6136 29.8736C47.3381 30.9219 47.7045 32.1108 47.7131 33.4403C47.7045 34.8466 47.304 36.0909 46.5114 37.1733C45.7188 38.2557 44.6875 38.9545 43.4176 39.2699V39.4233C44.3977 39.5938 45.2798 39.9943 46.0639 40.625C46.8565 41.2472 47.4872 42.027 47.956 42.9645C48.4332 43.8935 48.6761 44.9119 48.6847 46.0199C48.6761 47.4347 48.2756 48.696 47.483 49.804C46.6903 50.9119 45.5909 51.7812 44.1847 52.4119C42.7869 53.0426 41.1804 53.358 39.3651 53.358ZM39.3651 50.1236C40.4474 50.1236 41.3849 49.9446 42.1776 49.5866C42.9702 49.2202 43.5838 48.7131 44.0185 48.0653C44.4531 47.4091 44.6747 46.642 44.6832 45.7642C44.6747 44.8523 44.4361 44.0469 43.9673 43.348C43.5071 42.6491 42.8807 42.0994 42.0881 41.6989C41.2955 41.2983 40.3878 41.098 39.3651 41.098C38.3338 41.098 37.4176 41.2983 36.6165 41.6989C35.8153 42.0994 35.1847 42.6491 34.7244 43.348C34.2642 44.0469 34.0384 44.8523 34.0469 45.7642C34.0384 46.642 34.2472 47.4091 34.6733 48.0653C35.108 48.7131 35.7259 49.2202 36.527 49.5866C37.3281 49.9446 38.2741 50.1236 39.3651 50.1236ZM39.3651 37.9403C40.2344 37.9403 41.0057 37.7656 41.679 37.4162C42.3523 37.0668 42.8807 36.581 43.2642 35.9588C43.6563 35.3366 43.8565 34.608 43.8651 33.7727C43.8565 32.9545 43.6605 32.2386 43.277 31.625C42.902 31.0114 42.3778 30.5384 41.7045 30.206C41.0313 29.8651 40.2514 29.6946 39.3651 29.6946C38.4616 29.6946 37.669 29.8651 36.9872 30.206C36.3139 30.5384 35.7898 31.0114 35.4148 31.625C35.0398 32.2386 34.8565 32.9545 34.8651 33.7727C34.8565 34.608 35.044 35.3366 35.4276 35.9588C35.8111 36.581 36.3395 37.0668 37.0128 37.4162C37.6946 37.7656 38.4787 37.9403 39.3651 37.9403Z" fill="white"/>
</svg>
