<svg width="80" height="80" viewBox="0 0 80 80" fill="none" xmlns="http://www.w3.org/2000/svg">
<rect width="80" height="80" rx="40" fill="#454545"/>
<path d="M38.6591 53.358C37.4915 53.3409 36.3409 53.1278 35.2074 52.7188C34.0824 52.3097 33.0597 51.6278 32.1392 50.6733C31.2188 49.7187 30.4815 48.4361 29.9276 46.8253C29.3821 45.2145 29.1094 43.2031 29.1094 40.7912C29.1094 38.5071 29.3352 36.4787 29.7869 34.706C30.2472 32.9332 30.9077 31.4375 31.7685 30.2188C32.6293 28.9915 33.669 28.0582 34.8878 27.419C36.1065 26.7798 37.4744 26.4602 38.9915 26.4602C40.5511 26.4602 41.9361 26.767 43.1463 27.3807C44.3565 27.9943 45.3366 28.8423 46.0866 29.9247C46.8452 31.0071 47.3267 32.2386 47.5312 33.6193H43.6321C43.3679 32.5284 42.8438 31.6378 42.0597 30.9474C41.2756 30.2571 40.2528 29.9119 38.9915 29.9119C37.0739 29.9119 35.5781 30.7472 34.5043 32.4176C33.4389 34.0881 32.902 36.4105 32.8935 39.3849H33.0852C33.5369 38.6435 34.0909 38.0128 34.7472 37.4929C35.4119 36.9645 36.1534 36.5597 36.9716 36.2784C37.7983 35.9886 38.6676 35.8438 39.5795 35.8438C41.0966 35.8438 42.4688 36.2145 43.696 36.956C44.9318 37.6889 45.9162 38.7031 46.6491 39.9986C47.3821 41.294 47.7486 42.777 47.7486 44.4474C47.7486 46.1179 47.3693 47.6307 46.6108 48.9858C45.8608 50.3409 44.804 51.4148 43.4403 52.2074C42.0767 52.9915 40.483 53.375 38.6591 53.358ZM38.6463 50.0341C39.652 50.0341 40.5511 49.7869 41.3438 49.2926C42.1364 48.7983 42.7628 48.1335 43.223 47.2983C43.6832 46.4631 43.9134 45.5298 43.9134 44.4986C43.9134 43.4929 43.6875 42.5767 43.2358 41.75C42.7926 40.9233 42.179 40.267 41.3949 39.7812C40.6193 39.2955 39.733 39.0526 38.7358 39.0526C37.9773 39.0526 37.2741 39.1974 36.6264 39.4872C35.9872 39.777 35.4247 40.1776 34.9389 40.6889C34.4531 41.2003 34.0696 41.7884 33.7884 42.4531C33.5156 43.1094 33.3793 43.804 33.3793 44.5369C33.3793 45.517 33.6051 46.4247 34.0568 47.2599C34.517 48.0952 35.1435 48.7685 35.9361 49.2798C36.7372 49.7827 37.6406 50.0341 38.6463 50.0341Z" fill="white"/>
</svg>
