<svg width="80" height="80" viewBox="0 0 80 80" fill="none" xmlns="http://www.w3.org/2000/svg">
<rect width="80" height="80" rx="40" fill="#454545"/>
<path d="M39.6335 53.4347C37.6136 53.4261 35.8878 52.8935 34.456 51.8366C33.0241 50.7798 31.929 49.2415 31.1705 47.2216C30.4119 45.2017 30.0327 42.7685 30.0327 39.9219C30.0327 37.0838 30.4119 34.6591 31.1705 32.6477C31.9375 30.6364 33.0369 29.1023 34.4688 28.0455C35.9091 26.9886 37.6307 26.4602 39.6335 26.4602C41.6364 26.4602 43.3537 26.9929 44.7855 28.0582C46.2173 29.1151 47.3125 30.6491 48.071 32.6605C48.8381 34.6634 49.2216 37.0838 49.2216 39.9219C49.2216 42.777 48.8423 45.2145 48.0838 47.2344C47.3253 49.2457 46.2301 50.7841 44.7983 51.8494C43.3665 52.9063 41.6449 53.4347 39.6335 53.4347ZM39.6335 50.0213C41.4063 50.0213 42.7912 49.1562 43.7884 47.4261C44.794 45.696 45.2969 43.1946 45.2969 39.9219C45.2969 37.7486 45.0668 35.9119 44.6065 34.4119C44.1548 32.9034 43.5028 31.7614 42.6506 30.9858C41.8068 30.2017 40.8011 29.8097 39.6335 29.8097C37.8693 29.8097 36.4844 30.679 35.4787 32.4176C34.473 34.1562 33.9659 36.6577 33.9574 39.9219C33.9574 42.1037 34.1832 43.9489 34.6349 45.4574C35.0952 46.9574 35.7472 48.0952 36.5909 48.8707C37.4347 49.6378 38.4489 50.0213 39.6335 50.0213Z" fill="white"/>
</svg>
