<svg width="23" height="44" viewBox="0 0 23 44" fill="none" xmlns="http://www.w3.org/2000/svg">
<path d="M11.1605 35.358C9.55824 35.358 8.1179 35.0511 6.83949 34.4375C5.5696 33.8153 4.5554 32.9631 3.79688 31.8807C3.03835 30.7983 2.63352 29.5625 2.58239 28.1733H6.41761C6.51136 29.2983 7.00994 30.223 7.91335 30.9474C8.81676 31.6719 9.89915 32.0341 11.1605 32.0341C12.1662 32.0341 13.0568 31.804 13.8324 31.3438C14.6165 30.875 15.2301 30.2315 15.6733 29.4134C16.125 28.5952 16.3509 27.6619 16.3509 26.6136C16.3509 25.5483 16.1207 24.598 15.6605 23.7628C15.2003 22.9276 14.5653 22.2713 13.7557 21.794C12.9545 21.3168 12.0341 21.0739 10.9943 21.0653C10.2017 21.0653 9.40483 21.2017 8.60369 21.4744C7.80256 21.7472 7.15483 22.1051 6.66051 22.5483L3.04261 22.0114L4.51278 8.81818H18.9077V12.206H7.7983L6.96733 19.5312H7.12074C7.6321 19.0369 8.30966 18.6236 9.15341 18.2912C10.0057 17.9588 10.9176 17.7926 11.8892 17.7926C13.483 17.7926 14.902 18.1719 16.1463 18.9304C17.3991 19.6889 18.3835 20.7244 19.0994 22.0369C19.8239 23.3409 20.1818 24.8409 20.1733 26.5369C20.1818 28.233 19.7983 29.7457 19.0227 31.0753C18.2557 32.4048 17.1903 33.4531 15.8267 34.2202C14.4716 34.9787 12.9162 35.358 11.1605 35.358Z" fill="#1E1E1E"/>
</svg>
