<svg width="80" height="80" viewBox="0 0 80 80" fill="none" xmlns="http://www.w3.org/2000/svg">
<rect width="80" height="80" rx="40" fill="#454545"/>
<path d="M30.5185 50V47.1364L39.3778 37.9574C40.3239 36.9602 41.1037 36.0866 41.7173 35.3366C42.3395 34.5781 42.804 33.858 43.1108 33.1761C43.4176 32.4943 43.571 31.7699 43.571 31.0028C43.571 30.1335 43.3665 29.3835 42.9574 28.7528C42.5483 28.1136 41.9901 27.6236 41.2827 27.2827C40.5753 26.9332 39.7784 26.7585 38.892 26.7585C37.9545 26.7585 37.1364 26.9503 36.4375 27.3338C35.7386 27.7173 35.2017 28.2585 34.8267 28.9574C34.4517 29.6562 34.2642 30.4744 34.2642 31.4119H30.4929C30.4929 29.8182 30.8594 28.4247 31.5923 27.2315C32.3253 26.0384 33.331 25.1136 34.6094 24.4574C35.8878 23.7926 37.3409 23.4602 38.9688 23.4602C40.6136 23.4602 42.0625 23.7884 43.3153 24.4446C44.5767 25.0923 45.5611 25.9787 46.2685 27.1037C46.9759 28.2202 47.3295 29.4815 47.3295 30.8878C47.3295 31.8594 47.1463 32.8097 46.7798 33.7386C46.4219 34.6676 45.7955 35.7031 44.9006 36.8452C44.0057 37.9787 42.7614 39.3551 41.1676 40.9744L35.9645 46.4205V46.6122H47.7514V50H30.5185Z" fill="white"/>
</svg>
