<svg width="23" height="44" viewBox="0 0 23 44" fill="none" xmlns="http://www.w3.org/2000/svg">
<path d="M11.3651 35.358C9.53267 35.358 7.91335 35.0426 6.5071 34.4119C5.10938 33.7812 4.0142 32.9119 3.22159 31.804C2.42898 30.696 2.03693 29.4347 2.04545 28.0199C2.03693 26.9119 2.26278 25.8935 2.72301 24.9645C3.19176 24.027 3.8267 23.2472 4.62784 22.625C5.42898 21.9943 6.32386 21.5938 7.3125 21.4233V21.2699C6.00852 20.9545 4.96449 20.2557 4.1804 19.1733C3.39631 18.0909 3.00852 16.8466 3.01705 15.4403C3.00852 14.1023 3.36222 12.9091 4.07812 11.8608C4.80256 10.804 5.79545 9.97301 7.05682 9.3679C8.31818 8.76278 9.75426 8.46023 11.3651 8.46023C12.9588 8.46023 14.3821 8.76704 15.6349 9.38068C16.8963 9.98579 17.8892 10.8168 18.6136 11.8736C19.3381 12.9219 19.7045 14.1108 19.7131 15.4403C19.7045 16.8466 19.304 18.0909 18.5114 19.1733C17.7188 20.2557 16.6875 20.9545 15.4176 21.2699V21.4233C16.3977 21.5938 17.2798 21.9943 18.0639 22.625C18.8565 23.2472 19.4872 24.027 19.956 24.9645C20.4332 25.8935 20.6761 26.9119 20.6847 28.0199C20.6761 29.4347 20.2756 30.696 19.483 31.804C18.6903 32.9119 17.5909 33.7812 16.1847 34.4119C14.7869 35.0426 13.1804 35.358 11.3651 35.358ZM11.3651 32.1236C12.4474 32.1236 13.3849 31.9446 14.1776 31.5866C14.9702 31.2202 15.5838 30.7131 16.0185 30.0653C16.4531 29.4091 16.6747 28.642 16.6832 27.7642C16.6747 26.8523 16.4361 26.0469 15.9673 25.348C15.5071 24.6491 14.8807 24.0994 14.0881 23.6989C13.2955 23.2983 12.3878 23.098 11.3651 23.098C10.3338 23.098 9.41761 23.2983 8.61648 23.6989C7.81534 24.0994 7.18466 24.6491 6.72443 25.348C6.2642 26.0469 6.03835 26.8523 6.04688 27.7642C6.03835 28.642 6.24716 29.4091 6.6733 30.0653C7.10795 30.7131 7.72585 31.2202 8.52699 31.5866C9.32813 31.9446 10.2741 32.1236 11.3651 32.1236ZM11.3651 19.9403C12.2344 19.9403 13.0057 19.7656 13.679 19.4162C14.3523 19.0668 14.8807 18.581 15.2642 17.9588C15.6563 17.3366 15.8565 16.608 15.8651 15.7727C15.8565 14.9545 15.6605 14.2386 15.277 13.625C14.902 13.0114 14.3778 12.5384 13.7045 12.206C13.0313 11.8651 12.2514 11.6946 11.3651 11.6946C10.4616 11.6946 9.66903 11.8651 8.98722 12.206C8.31392 12.5384 7.78977 13.0114 7.41477 13.625C7.03977 14.2386 6.85653 14.9545 6.86506 15.7727C6.85653 16.608 7.04403 17.3366 7.42756 17.9588C7.81108 18.581 8.33949 19.0668 9.01278 19.4162C9.6946 19.7656 10.4787 19.9403 11.3651 19.9403Z" fill="black"/>
</svg>
