<svg width="24" height="44" viewBox="0 0 24 44" fill="none" xmlns="http://www.w3.org/2000/svg">
<path d="M11.6335 35.4347C9.61364 35.4261 7.88778 34.8935 6.45597 33.8366C5.02415 32.7798 3.92898 31.2415 3.17045 29.2216C2.41193 27.2017 2.03267 24.7685 2.03267 21.9219C2.03267 19.0838 2.41193 16.6591 3.17045 14.6477C3.9375 12.6364 5.03693 11.1023 6.46875 10.0455C7.90909 8.98864 9.63068 8.46023 11.6335 8.46023C13.6364 8.46023 15.3537 8.9929 16.7855 10.0582C18.2173 11.1151 19.3125 12.6491 20.071 14.6605C20.8381 16.6634 21.2216 19.0838 21.2216 21.9219C21.2216 24.777 20.8423 27.2145 20.0838 29.2344C19.3253 31.2457 18.2301 32.7841 16.7983 33.8494C15.3665 34.9063 13.6449 35.4347 11.6335 35.4347ZM11.6335 32.0213C13.4063 32.0213 14.7912 31.1562 15.7884 29.4261C16.794 27.696 17.2969 25.1946 17.2969 21.9219C17.2969 19.7486 17.0668 17.9119 16.6065 16.4119C16.1548 14.9034 15.5028 13.7614 14.6506 12.9858C13.8068 12.2017 12.8011 11.8097 11.6335 11.8097C9.86932 11.8097 8.48438 12.679 7.47869 14.4176C6.47301 16.1562 5.96591 18.6577 5.95739 21.9219C5.95739 24.1037 6.18324 25.9489 6.63494 27.4574C7.09517 28.9574 7.74716 30.0952 8.59091 30.8707C9.43466 31.6378 10.4489 32.0213 11.6335 32.0213Z" fill="#1E1E1E"/>
</svg>
