<svg width="23" height="44" viewBox="0 0 23 44" fill="none" xmlns="http://www.w3.org/2000/svg">
<path d="M11.6591 35.358C10.4915 35.3409 9.34091 35.1278 8.20739 34.7188C7.08239 34.3097 6.05966 33.6278 5.1392 32.6733C4.21875 31.7187 3.48153 30.4361 2.92756 28.8253C2.3821 27.2145 2.10938 25.2031 2.10938 22.7912C2.10938 20.5071 2.33523 18.4787 2.78693 16.706C3.24716 14.9332 3.90767 13.4375 4.76847 12.2188C5.62926 10.9915 6.66903 10.0582 7.88778 9.41903C9.10653 8.77983 10.4744 8.46023 11.9915 8.46023C13.5511 8.46023 14.9361 8.76704 16.1463 9.38068C17.3565 9.99432 18.3366 10.8423 19.0866 11.9247C19.8452 13.0071 20.3267 14.2386 20.5312 15.6193H16.6321C16.3679 14.5284 15.8438 13.6378 15.0597 12.9474C14.2756 12.2571 13.2528 11.9119 11.9915 11.9119C10.0739 11.9119 8.57813 12.7472 7.50426 14.4176C6.43892 16.0881 5.90199 18.4105 5.89347 21.3849H6.08523C6.53693 20.6435 7.09091 20.0128 7.74716 19.4929C8.41193 18.9645 9.15341 18.5597 9.97159 18.2784C10.7983 17.9886 11.6676 17.8438 12.5795 17.8438C14.0966 17.8438 15.4688 18.2145 16.696 18.956C17.9318 19.6889 18.9162 20.7031 19.6491 21.9986C20.3821 23.294 20.7486 24.777 20.7486 26.4474C20.7486 28.1179 20.3693 29.6307 19.6108 30.9858C18.8608 32.3409 17.804 33.4148 16.4403 34.2074C15.0767 34.9915 13.483 35.375 11.6591 35.358ZM11.6463 32.0341C12.652 32.0341 13.5511 31.7869 14.3438 31.2926C15.1364 30.7983 15.7628 30.1335 16.223 29.2983C16.6832 28.4631 16.9134 27.5298 16.9134 26.4986C16.9134 25.4929 16.6875 24.5767 16.2358 23.75C15.7926 22.9233 15.179 22.267 14.3949 21.7812C13.6193 21.2955 12.733 21.0526 11.7358 21.0526C10.9773 21.0526 10.2741 21.1974 9.62642 21.4872C8.98722 21.777 8.42472 22.1776 7.93892 22.6889C7.45313 23.2003 7.0696 23.7884 6.78835 24.4531C6.51562 25.1094 6.37926 25.804 6.37926 26.5369C6.37926 27.517 6.60511 28.4247 7.05682 29.2599C7.51705 30.0952 8.14347 30.7685 8.93608 31.2798C9.73722 31.7827 10.6406 32.0341 11.6463 32.0341Z" fill="#1E1E1E"/>
</svg>
