<svg width="80" height="80" viewBox="0 0 80 80" fill="none" xmlns="http://www.w3.org/2000/svg">
<rect width="80" height="80" rx="40" fill="#454545"/>
<path d="M50.6222 35.3324H46.6335C46.4801 34.4801 46.1946 33.7301 45.777 33.0824C45.3594 32.4347 44.848 31.8849 44.2429 31.4332C43.6378 30.9815 42.9602 30.6406 42.2102 30.4105C41.4688 30.1804 40.6804 30.0653 39.8452 30.0653C38.3366 30.0653 36.9858 30.4446 35.7926 31.2031C34.608 31.9616 33.6705 33.0739 32.9801 34.5398C32.2983 36.0057 31.9574 37.7955 31.9574 39.9091C31.9574 42.0398 32.2983 43.8381 32.9801 45.304C33.6705 46.7699 34.6122 47.8778 35.8054 48.6278C36.9986 49.3778 38.3409 49.7528 39.8324 49.7528C40.6591 49.7528 41.4432 49.642 42.1847 49.4205C42.9347 49.1903 43.6122 48.8537 44.2173 48.4105C44.8224 47.9673 45.3338 47.4261 45.7514 46.7869C46.1776 46.1392 46.4716 45.3977 46.6335 44.5625L50.6222 44.5753C50.4091 45.8622 49.9957 47.0469 49.3821 48.1293C48.777 49.2031 47.9972 50.1321 47.0426 50.9162C46.0966 51.6918 45.0142 52.2926 43.7955 52.7188C42.5767 53.1449 41.2472 53.358 39.8068 53.358C37.5398 53.358 35.5199 52.821 33.7472 51.7472C31.9744 50.6648 30.5767 49.1179 29.554 47.1065C28.5398 45.0952 28.0327 42.696 28.0327 39.9091C28.0327 37.1136 28.544 34.7145 29.5668 32.7116C30.5895 30.7003 31.9872 29.1577 33.7599 28.0838C35.5327 27.0014 37.5483 26.4602 39.8068 26.4602C41.196 26.4602 42.4915 26.6605 43.6932 27.0611C44.9034 27.4531 45.9901 28.0327 46.9531 28.7997C47.9162 29.5582 48.7131 30.4872 49.3438 31.5866C49.9744 32.6776 50.4006 33.9261 50.6222 35.3324Z" fill="white"/>
</svg>
