<svg width="24" height="44" viewBox="0 0 24 44" fill="none" xmlns="http://www.w3.org/2000/svg">
<path d="M11.6335 35.358C9.87784 35.358 8.30966 35.0554 6.92898 34.4503C5.55682 33.8452 4.47017 33.0057 3.66903 31.9318C2.87642 30.8494 2.45028 29.5966 2.39062 28.1733H6.40483C6.45597 28.9489 6.71591 29.6222 7.18466 30.1932C7.66193 30.7557 8.28409 31.1903 9.05114 31.4972C9.81818 31.804 10.6705 31.9574 11.608 31.9574C12.6392 31.9574 13.5511 31.7784 14.3438 31.4205C15.1449 31.0625 15.7713 30.5639 16.223 29.9247C16.6747 29.277 16.9006 28.5312 16.9006 27.6875C16.9006 26.8097 16.6747 26.0384 16.223 25.3736C15.7798 24.7003 15.1278 24.1719 14.267 23.7884C13.4148 23.4048 12.3835 23.2131 11.1733 23.2131H8.96165V19.9915H11.1733C12.1449 19.9915 12.9972 19.8168 13.7301 19.4673C14.4716 19.1179 15.0511 18.6321 15.4688 18.0099C15.8864 17.3793 16.0952 16.642 16.0952 15.7983C16.0952 14.9886 15.9119 14.2855 15.5455 13.6889C15.1875 13.0838 14.6761 12.6108 14.0114 12.2699C13.3551 11.929 12.5795 11.7585 11.6847 11.7585C10.8324 11.7585 10.0355 11.9162 9.29403 12.2315C8.56108 12.5384 7.96449 12.9815 7.50426 13.5611C7.04403 14.1321 6.79688 14.8182 6.76278 15.6193H2.94034C2.98295 14.2045 3.40057 12.9602 4.19318 11.8864C4.99432 10.8125 6.05114 9.97301 7.36364 9.3679C8.67614 8.76278 10.1335 8.46023 11.7358 8.46023C13.4148 8.46023 14.8636 8.78835 16.0824 9.4446C17.3097 10.0923 18.2557 10.9574 18.9205 12.0398C19.5938 13.1222 19.9261 14.3068 19.9176 15.5938C19.9261 17.0597 19.517 18.304 18.6903 19.3267C17.8722 20.3494 16.7813 21.0355 15.4176 21.3849V21.5895C17.1563 21.8537 18.5028 22.544 19.4574 23.6605C20.4205 24.777 20.8977 26.1619 20.8892 27.8153C20.8977 29.2557 20.4972 30.5469 19.6875 31.6889C18.8864 32.831 17.7912 33.7301 16.402 34.3864C15.0128 35.0341 13.4233 35.358 11.6335 35.358Z" fill="black"/>
</svg>
