<svg width="360" height="610" viewBox="0 0 360 610" fill="none" xmlns="http://www.w3.org/2000/svg">
<rect width="360" height="610" rx="20" fill="black"/>
<rect x="182" y="520" width="80" height="80" rx="40" fill="#454545"/>
<rect x="12" y="520" width="80" height="80" rx="40" fill="#454545"/>
<rect x="97" y="520" width="80" height="80" rx="40" fill="#454545"/>
<rect x="267" y="520" width="80" height="80" rx="40" fill="#454545"/>
<rect x="182" y="435" width="80" height="80" rx="40" fill="#454545"/>
<rect x="12" y="435" width="80" height="80" rx="40" fill="#454545"/>
<rect x="97" y="435" width="80" height="80" rx="40" fill="#454545"/>
<rect x="267" y="435" width="80" height="80" rx="40" fill="#454545"/>
<rect x="182" y="350" width="80" height="80" rx="40" fill="#454545"/>
<rect x="12" y="350" width="80" height="80" rx="40" fill="#454545"/>
<rect x="97" y="350" width="80" height="80" rx="40" fill="#454545"/>
<rect x="267" y="350" width="80" height="80" rx="40" fill="#454545"/>
<rect x="182" y="265" width="80" height="80" rx="40" fill="#454545"/>
<rect x="12" y="265" width="80" height="80" rx="40" fill="#454545"/>
<rect x="97" y="265" width="80" height="80" rx="40" fill="#454545"/>
<rect x="267" y="265" width="80" height="80" rx="40" fill="#454545"/>
<rect x="182" y="180" width="80" height="80" rx="40" fill="#454545"/>
<rect x="12" y="180" width="80" height="80" rx="40" fill="#454545"/>
<rect x="97" y="180" width="80" height="80" rx="40" fill="#454545"/>
<rect x="267" y="180" width="80" height="80" rx="40" fill="#454545"/>
<rect y="19" width="360" height="4" fill="white"/>
<rect y="23" width="360" height="4" fill="#989898"/>
<rect y="27" width="360" height="4" fill="white"/>
<g filter="url(#filter0_i_1_165)">
<rect x="118" y="10" width="120" height="30" rx="15" fill="#454545"/>
</g>
<defs>
<filter id="filter0_i_1_165" x="118" y="10" width="120" height="34" filterUnits="userSpaceOnUse" color-interpolation-filters="sRGB">
<feFlood flood-opacity="0" result="BackgroundImageFix"/>
<feBlend mode="normal" in="SourceGraphic" in2="BackgroundImageFix" result="shape"/>
<feColorMatrix in="SourceAlpha" type="matrix" values="0 0 0 0 0 0 0 0 0 0 0 0 0 0 0 0 0 0 127 0" result="hardAlpha"/>
<feOffset dy="4"/>
<feGaussianBlur stdDeviation="2"/>
<feComposite in2="hardAlpha" operator="arithmetic" k2="-1" k3="1"/>
<feColorMatrix type="matrix" values="0 0 0 0 0 0 0 0 0 0 0 0 0 0 0 0 0 0 0.25 0"/>
<feBlend mode="normal" in2="shape" result="effect1_innerShadow_1_165"/>
</filter>
</defs>
</svg>
