<svg width="100" height="40" viewBox="0 0 100 40" fill="none" xmlns="http://www.w3.org/2000/svg">
<rect width="100" height="40" rx="20" fill="black"/>
<path d="M24.848 26L21.968 20.996H20.402V26H18.35V13.49H22.67C23.63 13.49 24.44 13.658 25.1 13.994C25.772 14.33 26.27 14.78 26.594 15.344C26.93 15.908 27.098 16.538 27.098 17.234C27.098 18.05 26.858 18.794 26.378 19.466C25.91 20.126 25.184 20.576 24.2 20.816L27.296 26H24.848ZM20.402 19.358H22.67C23.438 19.358 24.014 19.166 24.398 18.782C24.794 18.398 24.992 17.882 24.992 17.234C24.992 16.586 24.8 16.082 24.416 15.722C24.032 15.35 23.45 15.164 22.67 15.164H20.402V19.358ZM38.813 20.798C38.813 21.17 38.789 21.506 38.741 21.806H31.163C31.223 22.598 31.517 23.234 32.045 23.714C32.573 24.194 33.221 24.434 33.989 24.434C35.093 24.434 35.873 23.972 36.329 23.048H38.543C38.243 23.96 37.697 24.71 36.905 25.298C36.125 25.874 35.153 26.162 33.989 26.162C33.041 26.162 32.189 25.952 31.433 25.532C30.689 25.1 30.101 24.5 29.669 23.732C29.249 22.952 29.039 22.052 29.039 21.032C29.039 20.012 29.243 19.118 29.651 18.35C30.071 17.57 30.653 16.97 31.397 16.55C32.153 16.13 33.017 15.92 33.989 15.92C34.925 15.92 35.759 16.124 36.491 16.532C37.223 16.94 37.793 17.516 38.201 18.26C38.609 18.992 38.813 19.838 38.813 20.798ZM36.671 20.15C36.659 19.394 36.389 18.788 35.861 18.332C35.333 17.876 34.679 17.648 33.899 17.648C33.191 17.648 32.585 17.876 32.081 18.332C31.577 18.776 31.277 19.382 31.181 20.15H36.671ZM52.8384 15.92C53.6184 15.92 54.3144 16.082 54.9264 16.406C55.5504 16.73 56.0364 17.21 56.3844 17.846C56.7444 18.482 56.9244 19.25 56.9244 20.15V26H54.8904V20.456C54.8904 19.568 54.6684 18.89 54.2244 18.422C53.7804 17.942 53.1744 17.702 52.4064 17.702C51.6384 17.702 51.0264 17.942 50.5704 18.422C50.1264 18.89 49.9044 19.568 49.9044 20.456V26H47.8704V20.456C47.8704 19.568 47.6484 18.89 47.2044 18.422C46.7604 17.942 46.1544 17.702 45.3864 17.702C44.6184 17.702 44.0064 17.942 43.5504 18.422C43.1064 18.89 42.8844 19.568 42.8844 20.456V26H40.8324V16.082H42.8844V17.216C43.2204 16.808 43.6464 16.49 44.1624 16.262C44.6784 16.034 45.2304 15.92 45.8184 15.92C46.6104 15.92 47.3184 16.088 47.9424 16.424C48.5664 16.76 49.0464 17.246 49.3824 17.882C49.6824 17.282 50.1504 16.808 50.7864 16.46C51.4224 16.1 52.1064 15.92 52.8384 15.92ZM63.8375 26.162C62.9015 26.162 62.0555 25.952 61.2995 25.532C60.5435 25.1 59.9495 24.5 59.5175 23.732C59.0855 22.952 58.8695 22.052 58.8695 21.032C58.8695 20.024 59.0915 19.13 59.5355 18.35C59.9795 17.57 60.5855 16.97 61.3535 16.55C62.1215 16.13 62.9795 15.92 63.9275 15.92C64.8755 15.92 65.7335 16.13 66.5015 16.55C67.2695 16.97 67.8755 17.57 68.3195 18.35C68.7635 19.13 68.9855 20.024 68.9855 21.032C68.9855 22.04 68.7575 22.934 68.3015 23.714C67.8455 24.494 67.2215 25.1 66.4295 25.532C65.6495 25.952 64.7855 26.162 63.8375 26.162ZM63.8375 24.38C64.3655 24.38 64.8575 24.254 65.3135 24.002C65.7815 23.75 66.1595 23.372 66.4475 22.868C66.7355 22.364 66.8795 21.752 66.8795 21.032C66.8795 20.312 66.7415 19.706 66.4655 19.214C66.1895 18.71 65.8235 18.332 65.3675 18.08C64.9115 17.828 64.4195 17.702 63.8915 17.702C63.3635 17.702 62.8715 17.828 62.4155 18.08C61.9715 18.332 61.6175 18.71 61.3535 19.214C61.0895 19.706 60.9575 20.312 60.9575 21.032C60.9575 22.1 61.2275 22.928 61.7675 23.516C62.3195 24.092 63.0095 24.38 63.8375 24.38ZM74.8481 24.164L77.6561 16.082H79.8341L76.0541 26H73.6061L69.8441 16.082H72.0401L74.8481 24.164ZM90.4752 20.798C90.4752 21.17 90.4512 21.506 90.4032 21.806H82.8252C82.8852 22.598 83.1792 23.234 83.7072 23.714C84.2352 24.194 84.8832 24.434 85.6512 24.434C86.7552 24.434 87.5352 23.972 87.9912 23.048H90.2052C89.9052 23.96 89.3592 24.71 88.5672 25.298C87.7872 25.874 86.8152 26.162 85.6512 26.162C84.7032 26.162 83.8512 25.952 83.0952 25.532C82.3512 25.1 81.7632 24.5 81.3312 23.732C80.9112 22.952 80.7012 22.052 80.7012 21.032C80.7012 20.012 80.9052 19.118 81.3132 18.35C81.7332 17.57 82.3152 16.97 83.0592 16.55C83.8152 16.13 84.6792 15.92 85.6512 15.92C86.5872 15.92 87.4212 16.124 88.1532 16.532C88.8852 16.94 89.4552 17.516 89.8632 18.26C90.2712 18.992 90.4752 19.838 90.4752 20.798ZM88.3332 20.15C88.3212 19.394 88.0512 18.788 87.5232 18.332C86.9952 17.876 86.3412 17.648 85.5612 17.648C84.8532 17.648 84.2472 17.876 83.7432 18.332C83.2392 18.776 82.9392 19.382 82.8432 20.15H88.3332Z" fill="white"/>
</svg>
