<svg width="100" height="40" viewBox="0 0 100 40" fill="none" xmlns="http://www.w3.org/2000/svg">
<rect width="100" height="40" rx="20" fill="black"/>
<path d="M40.0968 13.49V15.164H34.7868V18.854H38.9268V20.528H34.7868V26H32.7348V13.49H40.0968ZM43.0424 14.768C42.6704 14.768 42.3584 14.642 42.1064 14.39C41.8544 14.138 41.7284 13.826 41.7284 13.454C41.7284 13.082 41.8544 12.77 42.1064 12.518C42.3584 12.266 42.6704 12.14 43.0424 12.14C43.4024 12.14 43.7084 12.266 43.9604 12.518C44.2124 12.77 44.3384 13.082 44.3384 13.454C44.3384 13.826 44.2124 14.138 43.9604 14.39C43.7084 14.642 43.4024 14.768 43.0424 14.768ZM44.0504 16.082V26H41.9984V16.082H44.0504ZM48.7965 17.522C49.0965 17.018 49.4925 16.628 49.9845 16.352C50.4885 16.064 51.0825 15.92 51.7665 15.92V18.044H51.2445C50.4405 18.044 49.8285 18.248 49.4085 18.656C49.0005 19.064 48.7965 19.772 48.7965 20.78V26H46.7445V16.082H48.7965V17.522ZM57.2527 26.162C56.4727 26.162 55.7707 26.024 55.1467 25.748C54.5347 25.46 54.0487 25.076 53.6887 24.596C53.3287 24.104 53.1367 23.558 53.1127 22.958H55.2367C55.2727 23.378 55.4707 23.732 55.8307 24.02C56.2027 24.296 56.6647 24.434 57.2167 24.434C57.7927 24.434 58.2367 24.326 58.5487 24.11C58.8727 23.882 59.0347 23.594 59.0347 23.246C59.0347 22.874 58.8547 22.598 58.4947 22.418C58.1467 22.238 57.5887 22.04 56.8207 21.824C56.0767 21.62 55.4707 21.422 55.0027 21.23C54.5347 21.038 54.1267 20.744 53.7787 20.348C53.4427 19.952 53.2747 19.43 53.2747 18.782C53.2747 18.254 53.4307 17.774 53.7427 17.342C54.0547 16.898 54.4987 16.55 55.0747 16.298C55.6627 16.046 56.3347 15.92 57.0907 15.92C58.2187 15.92 59.1247 16.208 59.8087 16.784C60.5047 17.348 60.8767 18.122 60.9247 19.106H58.8727C58.8367 18.662 58.6567 18.308 58.3327 18.044C58.0087 17.78 57.5707 17.648 57.0187 17.648C56.4787 17.648 56.0647 17.75 55.7767 17.954C55.4887 18.158 55.3447 18.428 55.3447 18.764C55.3447 19.028 55.4407 19.25 55.6327 19.43C55.8247 19.61 56.0587 19.754 56.3347 19.862C56.6107 19.958 57.0187 20.084 57.5587 20.24C58.2787 20.432 58.8667 20.63 59.3227 20.834C59.7907 21.026 60.1927 21.314 60.5287 21.698C60.8647 22.082 61.0387 22.592 61.0507 23.228C61.0507 23.792 60.8947 24.296 60.5827 24.74C60.2707 25.184 59.8267 25.532 59.2507 25.784C58.6867 26.036 58.0207 26.162 57.2527 26.162ZM65.662 17.756V23.246C65.662 23.618 65.746 23.888 65.914 24.056C66.094 24.212 66.394 24.29 66.814 24.29H68.074V26H66.454C65.53 26 64.822 25.784 64.33 25.352C63.838 24.92 63.592 24.218 63.592 23.246V17.756H62.422V16.082H63.592V13.616H65.662V16.082H68.074V17.756H65.662Z" fill="white"/>
</svg>
