<svg width="100" height="40" viewBox="0 0 100 40" fill="none" xmlns="http://www.w3.org/2000/svg">
<rect width="100" height="40" rx="20" fill="black"/>
<path d="M28.098 17.216C28.098 17.852 27.948 18.452 27.648 19.016C27.348 19.58 26.868 20.042 26.208 20.402C25.548 20.75 24.702 20.924 23.67 20.924H21.402V26H19.35V13.49H23.67C24.63 13.49 25.44 13.658 26.1 13.994C26.772 14.318 27.27 14.762 27.594 15.326C27.93 15.89 28.098 16.52 28.098 17.216ZM23.67 19.25C24.45 19.25 25.032 19.076 25.416 18.728C25.8 18.368 25.992 17.864 25.992 17.216C25.992 15.848 25.218 15.164 23.67 15.164H21.402V19.25H23.67ZM34.3571 26.162C33.4211 26.162 32.5751 25.952 31.8191 25.532C31.0631 25.1 30.4691 24.5 30.0371 23.732C29.6051 22.952 29.3891 22.052 29.3891 21.032C29.3891 20.024 29.6111 19.13 30.0551 18.35C30.4991 17.57 31.1051 16.97 31.8731 16.55C32.6411 16.13 33.4991 15.92 34.4471 15.92C35.3951 15.92 36.2531 16.13 37.0211 16.55C37.7891 16.97 38.3951 17.57 38.8391 18.35C39.2831 19.13 39.5051 20.024 39.5051 21.032C39.5051 22.04 39.2771 22.934 38.8211 23.714C38.3651 24.494 37.7411 25.1 36.9491 25.532C36.1691 25.952 35.3051 26.162 34.3571 26.162ZM34.3571 24.38C34.8851 24.38 35.3771 24.254 35.8331 24.002C36.3011 23.75 36.6791 23.372 36.9671 22.868C37.2551 22.364 37.3991 21.752 37.3991 21.032C37.3991 20.312 37.2611 19.706 36.9851 19.214C36.7091 18.71 36.3431 18.332 35.8871 18.08C35.4311 17.828 34.9391 17.702 34.4111 17.702C33.8831 17.702 33.3911 17.828 32.9351 18.08C32.4911 18.332 32.1371 18.71 31.8731 19.214C31.6091 19.706 31.4771 20.312 31.4771 21.032C31.4771 22.1 31.7471 22.928 32.2871 23.516C32.8391 24.092 33.5291 24.38 34.3571 24.38ZM45.1336 26.162C44.3536 26.162 43.6516 26.024 43.0276 25.748C42.4156 25.46 41.9296 25.076 41.5696 24.596C41.2096 24.104 41.0176 23.558 40.9936 22.958H43.1176C43.1536 23.378 43.3516 23.732 43.7116 24.02C44.0836 24.296 44.5456 24.434 45.0976 24.434C45.6736 24.434 46.1176 24.326 46.4296 24.11C46.7536 23.882 46.9156 23.594 46.9156 23.246C46.9156 22.874 46.7356 22.598 46.3756 22.418C46.0276 22.238 45.4696 22.04 44.7016 21.824C43.9576 21.62 43.3516 21.422 42.8836 21.23C42.4156 21.038 42.0076 20.744 41.6596 20.348C41.3236 19.952 41.1556 19.43 41.1556 18.782C41.1556 18.254 41.3116 17.774 41.6236 17.342C41.9356 16.898 42.3796 16.55 42.9556 16.298C43.5436 16.046 44.2156 15.92 44.9716 15.92C46.0996 15.92 47.0056 16.208 47.6896 16.784C48.3856 17.348 48.7576 18.122 48.8056 19.106H46.7536C46.7176 18.662 46.5376 18.308 46.2136 18.044C45.8896 17.78 45.4516 17.648 44.8996 17.648C44.3596 17.648 43.9456 17.75 43.6576 17.954C43.3696 18.158 43.2256 18.428 43.2256 18.764C43.2256 19.028 43.3216 19.25 43.5136 19.43C43.7056 19.61 43.9396 19.754 44.2156 19.862C44.4916 19.958 44.8996 20.084 45.4396 20.24C46.1596 20.432 46.7476 20.63 47.2036 20.834C47.6716 21.026 48.0736 21.314 48.4096 21.698C48.7456 22.082 48.9196 22.592 48.9316 23.228C48.9316 23.792 48.7756 24.296 48.4636 24.74C48.1516 25.184 47.7076 25.532 47.1316 25.784C46.5676 26.036 45.9016 26.162 45.1336 26.162ZM52.1928 14.768C51.8208 14.768 51.5088 14.642 51.2568 14.39C51.0048 14.138 50.8788 13.826 50.8788 13.454C50.8788 13.082 51.0048 12.77 51.2568 12.518C51.5088 12.266 51.8208 12.14 52.1928 12.14C52.5528 12.14 52.8588 12.266 53.1108 12.518C53.3628 12.77 53.4888 13.082 53.4888 13.454C53.4888 13.826 53.3628 14.138 53.1108 14.39C52.8588 14.642 52.5528 14.768 52.1928 14.768ZM53.2008 16.082V26H51.1488V16.082H53.2008ZM58.2889 17.756V23.246C58.2889 23.618 58.3729 23.888 58.5409 24.056C58.7209 24.212 59.0209 24.29 59.4409 24.29H60.7009V26H59.0809C58.1569 26 57.4489 25.784 56.9569 25.352C56.4649 24.92 56.2189 24.218 56.2189 23.246V17.756H55.0489V16.082H56.2189V13.616H58.2889V16.082H60.7009V17.756H58.2889ZM63.6362 14.768C63.2642 14.768 62.9522 14.642 62.7002 14.39C62.4482 14.138 62.3222 13.826 62.3222 13.454C62.3222 13.082 62.4482 12.77 62.7002 12.518C62.9522 12.266 63.2642 12.14 63.6362 12.14C63.9962 12.14 64.3022 12.266 64.5542 12.518C64.8062 12.77 64.9322 13.082 64.9322 13.454C64.9322 13.826 64.8062 14.138 64.5542 14.39C64.3022 14.642 63.9962 14.768 63.6362 14.768ZM64.6442 16.082V26H62.5922V16.082H64.6442ZM71.6403 26.162C70.7043 26.162 69.8583 25.952 69.1023 25.532C68.3463 25.1 67.7523 24.5 67.3203 23.732C66.8883 22.952 66.6723 22.052 66.6723 21.032C66.6723 20.024 66.8943 19.13 67.3383 18.35C67.7823 17.57 68.3883 16.97 69.1563 16.55C69.9243 16.13 70.7823 15.92 71.7303 15.92C72.6783 15.92 73.5363 16.13 74.3043 16.55C75.0723 16.97 75.6783 17.57 76.1223 18.35C76.5663 19.13 76.7883 20.024 76.7883 21.032C76.7883 22.04 76.5603 22.934 76.1043 23.714C75.6483 24.494 75.0243 25.1 74.2323 25.532C73.4523 25.952 72.5883 26.162 71.6403 26.162ZM71.6403 24.38C72.1683 24.38 72.6603 24.254 73.1163 24.002C73.5843 23.75 73.9623 23.372 74.2503 22.868C74.5383 22.364 74.6823 21.752 74.6823 21.032C74.6823 20.312 74.5443 19.706 74.2683 19.214C73.9923 18.71 73.6263 18.332 73.1703 18.08C72.7143 17.828 72.2223 17.702 71.6943 17.702C71.1663 17.702 70.6743 17.828 70.2183 18.08C69.7743 18.332 69.4203 18.71 69.1563 19.214C68.8923 19.706 68.7603 20.312 68.7603 21.032C68.7603 22.1 69.0303 22.928 69.5703 23.516C70.1223 24.092 70.8123 24.38 71.6403 24.38ZM83.8208 15.92C84.6008 15.92 85.2968 16.082 85.9088 16.406C86.5328 16.73 87.0188 17.21 87.3668 17.846C87.7148 18.482 87.8888 19.25 87.8888 20.15V26H85.8548V20.456C85.8548 19.568 85.6328 18.89 85.1888 18.422C84.7448 17.942 84.1388 17.702 83.3708 17.702C82.6028 17.702 81.9908 17.942 81.5348 18.422C81.0908 18.89 80.8688 19.568 80.8688 20.456V26H78.8168V16.082H80.8688V17.216C81.2048 16.808 81.6308 16.49 82.1468 16.262C82.6748 16.034 83.2328 15.92 83.8208 15.92Z" fill="white"/>
</svg>
