<svg width="132" height="73" viewBox="0 0 132 73" fill="none" xmlns="http://www.w3.org/2000/svg">
<ellipse cx="66" cy="36.5" rx="66" ry="36.5" fill="#8357DB"/>
<path d="M30.56 18.28C30.5067 18.6533 30.3333 18.9867 30.04 19.28C29.7733 19.5733 29.4533 19.8267 29.08 20.04C28.7067 20.2267 28.3067 20.3867 27.88 20.52C27.48 20.6267 27.1067 20.68 26.76 20.68C26.3333 20.68 25.8267 20.6267 25.24 20.52C24.68 20.4133 24.1333 20.28 23.6 20.12C23.0933 19.96 22.6533 19.8 22.28 19.64C21.9333 19.48 21.76 19.3333 21.76 19.2C21.76 19.1467 21.8133 19.1067 21.92 19.08C22.0267 19.0533 22.16 19.0267 22.32 19C22.5067 18.9733 22.6933 18.96 22.88 18.96C23.0667 18.96 23.2267 18.96 23.36 18.96C23.8933 18.96 24.48 18.9867 25.12 19.04C25.7867 19.0933 26.3867 19.1067 26.92 19.08C27.3467 19.08 27.7067 19.0667 28 19.04C28.2933 19.0133 28.56 18.9733 28.8 18.92C29.0667 18.84 29.32 18.76 29.56 18.68C29.8 18.5733 30.08 18.44 30.4 18.28C30.4533 18.2267 30.5067 18.2267 30.56 18.28ZM30.96 17C30.96 17.2667 30.8267 17.4933 30.56 17.68C30.32 17.8667 30.0267 18.0267 29.68 18.16C29.36 18.2667 29.0133 18.36 28.64 18.44C28.2933 18.4933 28.0267 18.52 27.84 18.52C26.8533 18.52 25.8533 18.4133 24.84 18.2C23.8267 17.9867 22.8267 17.88 21.84 17.88C20.6667 17.88 19.6133 18.16 18.68 18.72C17.7467 19.2533 17.0133 20.0133 16.48 21C16.4267 21.08 16.36 21.12 16.28 21.12C16.2 21.12 16.1867 21.0533 16.24 20.92C16.6667 19.6133 17.3467 18.5733 18.28 17.8C19.2133 17.0267 20.4267 16.64 21.92 16.64C23.04 16.64 24.1467 16.7733 25.24 17.04C26.36 17.28 27.48 17.4 28.6 17.4C29 17.4 29.4133 17.36 29.84 17.28C30.2933 17.1733 30.5733 17.0933 30.68 17.04C30.7067 17.0133 30.76 17 30.84 17C30.92 16.9733 30.96 16.9733 30.96 17ZM19.64 19.44C19.64 19.4933 19.56 19.5867 19.4 19.72C19.24 19.8533 19.0533 20 18.84 20.16C18.6267 20.2933 18.4133 20.4267 18.2 20.56C18.0133 20.6667 17.88 20.7467 17.8 20.8C17.56 21.0133 17.3467 21.24 17.16 21.48C16.9733 21.6933 16.7733 21.92 16.56 22.16C16.5333 22.16 16.52 22.1867 16.52 22.24C16.52 22.2667 16.4933 22.28 16.44 22.28C16.4133 22.28 16.4 22.24 16.4 22.16C16.4 21.84 16.4933 21.5067 16.68 21.16C16.8667 20.8133 17.0933 20.5067 17.36 20.24C17.6533 19.9467 17.9733 19.72 18.32 19.56C18.6933 19.3733 19.0533 19.28 19.4 19.28C19.56 19.28 19.64 19.3333 19.64 19.44ZM28.72 26.52C28.7467 27.8267 28.6133 29.2 28.32 30.64C28.0267 32.0533 27.6133 33.4933 27.08 34.96C26.5467 36.4 25.9333 37.8267 25.24 39.24C24.5733 40.6533 23.8667 41.9867 23.12 43.24C22.3733 44.4933 21.6267 45.6533 20.88 46.72C20.1333 47.7867 19.4533 48.6933 18.84 49.44C18.8133 49.4667 18.7733 49.5067 18.72 49.56C18.6667 49.64 18.6133 49.7067 18.56 49.76C18.5067 49.84 18.4533 49.88 18.4 49.88C18.3467 49.9067 18.32 49.8667 18.32 49.76C18.2933 49.68 18.44 49.3067 18.76 48.64C19.1067 48 19.52 47.2 20 46.24C20.5067 45.28 21.0533 44.24 21.64 43.12C22.2533 42 22.8267 40.9333 23.36 39.92C23.8933 38.88 24.36 37.9733 24.76 37.2C25.16 36.4 25.4133 35.8533 25.52 35.56C25.8133 34.76 26.1067 33.92 26.4 33.04C26.72 32.1333 27 31.2 27.24 30.24C27.5067 29.28 27.7067 28.2933 27.84 27.28C28 26.2667 28.0667 25.24 28.04 24.2C28.04 23.9867 28.0533 23.88 28.08 23.88C28.1333 23.88 28.1733 23.9067 28.2 23.96C28.2267 23.9867 28.2667 24.0933 28.32 24.28C28.4 24.5467 28.48 24.9333 28.56 25.44C28.6667 25.92 28.72 26.28 28.72 26.52ZM25.48 22.44C25.2667 24.6267 24.9333 26.6 24.48 28.36C24.0267 30.0933 23.52 31.6667 22.96 33.08C22.4267 34.4933 21.8533 35.7733 21.24 36.92C20.6533 38.0667 20.12 39.12 19.64 40.08C19.1333 41.0933 18.6533 42.1067 18.2 43.12C17.7733 44.1333 17.3867 45.16 17.04 46.2C16.72 47.2667 16.4533 48.36 16.24 49.48C16.0533 50.6 15.96 51.7867 15.96 53.04C15.96 53.3333 15.9333 53.4533 15.88 53.4C15.8267 53.4 15.7867 53.32 15.76 53.16C15.7067 53.0267 15.6533 52.8533 15.6 52.64C15.5467 52.4533 15.5067 52.2667 15.48 52.08C15.4267 51.8933 15.4 51.7333 15.4 51.6C15.2667 50.3733 15.28 49.2133 15.44 48.12C15.5733 47.0533 15.7867 46.0267 16.08 45.04C16.4 44.0267 16.7733 43.0533 17.2 42.12C17.6267 41.1867 18.04 40.24 18.44 39.28C18.8667 38.2667 19.3867 37.0933 20 35.76C20.64 34.4267 21.2667 33.0267 21.88 31.56C22.4933 30.0667 23.0533 28.5467 23.56 27C24.0667 25.4267 24.4133 23.9067 24.6 22.44C23.5867 22.3867 22.5333 22.28 21.44 22.12C20.3733 21.9333 19.3733 21.7067 18.44 21.44C18.3867 21.4133 18.3333 21.3867 18.28 21.36C18.2267 21.3333 18.2 21.2933 18.2 21.24C18.1733 21.16 18.2267 21.0933 18.36 21.04C18.52 20.9867 18.6133 20.96 18.64 20.96C19.4933 20.7467 20.2933 20.64 21.04 20.64C22.0533 20.64 23.0533 20.7467 24.04 20.96C25.0267 21.1467 26.0267 21.24 27.04 21.24C27.36 21.24 27.6933 21.2133 28.04 21.16C28.4133 21.08 28.6667 21.0133 28.8 20.96C28.9067 20.9067 28.96 20.92 28.96 21C28.96 21.0533 28.9467 21.1067 28.92 21.16C28.68 21.4533 28.3867 21.6933 28.04 21.88C27.72 22.04 27.3733 22.1733 27 22.28C27.08 22.6267 27.1333 22.9467 27.16 23.24C27.1867 23.5067 27.2133 23.7467 27.24 23.96C27.4 25.32 27.32 26.76 27 28.28C26.7067 29.7733 26.2667 31.28 25.68 32.8C25.0933 34.2933 24.4 35.7733 23.6 37.24C22.8 38.68 21.9867 40.0133 21.16 41.24C20.9467 41.5333 20.7867 41.6267 20.68 41.52C20.6 41.4133 20.6267 41.1867 20.76 40.84C20.92 40.4133 21.1733 39.8267 21.52 39.08C21.8667 38.3067 22.2267 37.52 22.6 36.72C22.9733 35.8933 23.32 35.12 23.64 34.4C23.96 33.68 24.1733 33.16 24.28 32.84C24.9733 30.68 25.4667 28.7333 25.76 27C26.08 25.24 26.2133 23.7067 26.16 22.4C26.0267 22.4267 25.9067 22.44 25.8 22.44C25.6933 22.44 25.5867 22.44 25.48 22.44ZM18.48 45.8C18.48 45.96 18.44 46.24 18.36 46.64C18.28 47.0667 18.1867 47.52 18.08 48C17.9733 48.48 17.8667 48.9333 17.76 49.36C17.6533 49.8133 17.5867 50.1467 17.56 50.36C17.4267 50.92 17.32 51.48 17.24 52.04C17.1867 52.6 17.1333 53.1867 17.08 53.8C17.08 53.8533 17.0667 53.9333 17.04 54.04C17.04 54.1467 17 54.2 16.92 54.2C16.8667 54.1733 16.8267 54.0933 16.8 53.96C16.7733 53.8267 16.7467 53.7333 16.72 53.68C16.6667 53.44 16.6 53.12 16.52 52.72C16.4667 52.3467 16.44 52.0533 16.44 51.84C16.44 51.1733 16.5067 50.4667 16.64 49.72C16.7733 49 16.9333 48.3333 17.12 47.72C17.3067 47.1067 17.5067 46.6 17.72 46.2C17.9333 45.8 18.1333 45.6133 18.32 45.64C18.3733 45.6667 18.4 45.6933 18.4 45.72C18.4267 45.7467 18.4533 45.7733 18.48 45.8ZM38.0328 39.88C39.0461 38.92 39.9528 37.96 40.7528 37C41.5795 36.04 42.3395 34.9733 43.0328 33.8C43.7528 32.6 44.4061 31.24 44.9928 29.72C45.6061 28.1733 46.2061 26.36 46.7928 24.28C47.1128 23.08 47.3795 21.92 47.5928 20.8C47.8328 19.68 47.9261 18.5867 47.8728 17.52C47.8728 17.3067 47.8861 17.2 47.9128 17.2C47.9661 17.2 48.0061 17.24 48.0328 17.32C48.0595 17.4 48.0861 17.4667 48.1128 17.52C48.5128 18.7733 48.6461 20.0933 48.5128 21.48C48.3795 22.84 48.1261 24.24 47.7528 25.68C47.3795 27.0933 46.9395 28.5333 46.4328 30C45.9528 31.4667 45.5395 32.9333 45.1928 34.4C44.9795 35.3067 44.8195 36.2667 44.7128 37.28C44.6061 38.2933 44.5661 39.3067 44.5928 40.32C44.6461 41.3067 44.7795 42.28 44.9928 43.24C45.2061 44.2 45.5395 45.0933 45.9928 45.92C46.0195 45.9467 46.0328 45.9867 46.0328 46.04V46.12C45.9528 46.12 45.8995 46.1067 45.8728 46.08L45.7928 46C44.7528 44.88 44.0461 43.5067 43.6728 41.88C43.2995 42.3333 42.9128 42.7733 42.5128 43.2C42.1395 43.6267 41.6061 44.0667 40.9128 44.52C39.7928 45.2667 38.5395 45.7733 37.1528 46.04C35.7928 46.3333 34.4328 46.16 33.0728 45.52C32.2728 45.12 31.6595 44.6 31.2328 43.96C30.8061 43.2933 30.4861 42.5867 30.2728 41.84C30.0861 41.0667 29.9661 40.2933 29.9128 39.52C29.8861 38.72 29.8595 38 29.8328 37.36C29.7795 36.1067 29.8328 34.8933 29.9928 33.72C30.1795 32.5467 30.4195 31.4533 30.7128 30.44C31.0061 29.4 31.3395 28.4667 31.7128 27.64C32.0861 26.8133 32.4461 26.12 32.7928 25.56C32.8195 25.5067 32.8595 25.4533 32.9128 25.4C32.9928 25.32 33.0461 25.28 33.0728 25.28C33.1261 25.3067 33.1261 25.3867 33.0728 25.52C33.0461 25.6267 33.0195 25.7067 32.9928 25.76C32.5928 26.96 32.2328 28.1867 31.9128 29.44C31.5928 30.6933 31.3528 31.96 31.1928 33.24C31.0328 34.52 30.9661 35.8133 30.9928 37.12C31.0461 38.4 31.2328 39.6933 31.5528 41C31.6861 41.5333 31.8861 42.0933 32.1528 42.68C32.4195 43.24 32.8595 43.7467 33.4728 44.2C33.8195 44.4667 34.1795 44.6533 34.5528 44.76C34.9261 44.8667 35.2861 44.9333 35.6328 44.96C35.9795 44.96 36.2995 44.9333 36.5928 44.88C36.9128 44.8267 37.2061 44.76 37.4728 44.68C38.6728 44.3867 39.6995 43.8533 40.5528 43.08C41.4328 42.3067 42.1795 41.52 42.7928 40.72C43.0328 40.4533 43.2328 40.1467 43.3928 39.8C43.3661 39.2933 43.3795 38.7067 43.4328 38.04C43.4861 37.3733 43.5528 36.7467 43.6328 36.16C43.7128 35.5733 43.7795 35.08 43.8328 34.68C43.8861 34.28 43.8995 34.0933 43.8728 34.12C43.2595 35.48 42.5261 36.68 41.6728 37.72C40.8461 38.7333 40.1261 39.56 39.5128 40.2C39.1128 40.6267 38.6595 41 38.1528 41.32C37.6728 41.64 37.1928 41.8667 36.7128 42C36.2328 42.1333 35.7928 42.1333 35.3928 42C34.9928 41.8667 34.6995 41.56 34.5128 41.08C34.1395 39.9867 33.8728 38.7867 33.7128 37.48C33.5528 36.1467 33.5395 34.8 33.6728 33.44C33.9661 30.72 34.6061 28.04 35.5928 25.4C36.6061 22.76 38.0195 20.3467 39.8328 18.16C39.9395 18.0267 40.0328 17.9333 40.1128 17.88C40.2195 17.8267 40.1928 17.9333 40.0328 18.2C39.4461 19.1067 38.8728 20.1467 38.3128 21.32C37.7795 22.4933 37.2861 23.7333 36.8328 25.04C36.4061 26.32 36.0195 27.64 35.6728 29C35.3528 30.36 35.1261 31.68 34.9928 32.96C34.8595 34.24 34.8061 35.5067 34.8328 36.76C34.8595 37.9867 35.0595 39.08 35.4328 40.04C35.5661 40.3867 35.7395 40.6133 35.9528 40.72C36.1928 40.8 36.4328 40.8133 36.6728 40.76C36.9128 40.68 37.1528 40.56 37.3928 40.4C37.6328 40.2133 37.8461 40.04 38.0328 39.88ZM38.6728 43.08C38.3795 43.24 38.0728 43.4 37.7528 43.56C37.4328 43.72 37.0995 43.8533 36.7528 43.96C36.4328 44.04 36.0861 44.08 35.7128 44.08C35.3395 44.08 34.9528 44.0133 34.5528 43.88C33.7795 43.6133 33.2195 43.1733 32.8728 42.56C32.5528 41.92 32.2995 41.3067 32.1128 40.72C31.6861 39.44 31.4861 38.1733 31.5128 36.92C31.5661 35.64 31.6728 34.28 31.8328 32.84C31.9395 31.8267 32.1528 30.72 32.4728 29.52C32.8195 28.2933 33.2461 27.08 33.7528 25.88C34.2595 24.68 34.8195 23.56 35.4328 22.52C36.0728 21.48 36.7395 20.6267 37.4328 19.96C37.4861 19.9067 37.5795 19.8133 37.7128 19.68C37.8728 19.52 37.9795 19.4667 38.0328 19.52C38.0595 19.5467 37.9395 19.7733 37.6728 20.2C37.4061 20.6267 37.0861 21.2 36.7128 21.92C36.3395 22.64 35.9661 23.4667 35.5928 24.4C35.2195 25.3067 34.8461 26.2933 34.4728 27.36C34.1261 28.4 33.8328 29.48 33.5928 30.6C33.3528 31.6933 33.1928 32.76 33.1128 33.8C33.0328 34.84 32.9928 35.8 32.9928 36.68C33.0195 37.5333 33.0595 38.2667 33.1128 38.88C33.1928 39.4667 33.2595 39.8667 33.3128 40.08C33.4461 40.6133 33.6328 41.1733 33.8728 41.76C34.1395 42.32 34.4995 42.7067 34.9528 42.92C35.4061 43.1333 35.9661 43.2 36.6328 43.12C37.3261 43.04 37.9395 42.8533 38.4728 42.56C38.4995 42.5333 38.5795 42.48 38.7128 42.4C38.8461 42.32 38.9795 42.24 39.1128 42.16C39.2728 42.0533 39.4061 41.9733 39.5128 41.92C39.6461 41.84 39.7261 41.8133 39.7528 41.84C39.7795 41.8933 39.7661 41.9733 39.7128 42.08C39.6595 42.1867 39.5661 42.3067 39.4328 42.44C39.3261 42.5733 39.1928 42.7067 39.0328 42.84C38.8995 42.9467 38.7795 43.0267 38.6728 43.08ZM49.5128 34.76C49.1928 36.04 48.8061 37.3467 48.3528 38.68C47.9261 40.0133 47.5528 41.1733 47.2328 42.16C47.1795 42.2933 47.1261 42.4267 47.0728 42.56C47.0195 42.6933 46.9661 42.7467 46.9128 42.72C46.8328 42.6933 46.7928 42.6133 46.7928 42.48C46.7928 42.32 46.7928 42.1733 46.7928 42.04C46.8995 40.04 47.1928 38.0533 47.6728 36.08C48.1795 34.1067 48.7395 32.12 49.3528 30.12C49.7261 28.8667 50.0728 27.6 50.3928 26.32C50.7395 25.0133 50.9395 23.6133 50.9928 22.12C50.9928 21.9333 51.0195 21.84 51.0728 21.84C51.1528 21.84 51.2195 21.9333 51.2728 22.12C51.5661 22.84 51.6728 23.7733 51.5928 24.92C51.5128 26.04 51.3395 27.2133 51.0728 28.44C50.8328 29.6667 50.5528 30.8533 50.2328 32C49.9128 33.1467 49.6728 34.0667 49.5128 34.76ZM49.9528 26C49.5795 27.44 49.1795 28.92 48.7528 30.44C48.3261 31.96 47.7261 33.4 46.9528 34.76C46.8995 34.84 46.8061 34.9867 46.6728 35.2C46.5661 35.3867 46.4728 35.4667 46.3928 35.44C46.3395 35.44 46.3128 35.3333 46.3128 35.12C46.3128 34.9067 46.3261 34.7333 46.3528 34.6C46.3795 34.28 46.4328 33.8933 46.5128 33.44C46.5928 32.96 46.6861 32.48 46.7928 32C46.9261 31.4933 47.0461 31.0133 47.1528 30.56C47.2861 30.08 47.4061 29.68 47.5128 29.36C47.5661 29.2 47.6461 28.8933 47.7528 28.44C47.8861 27.96 48.0195 27.4 48.1528 26.76C48.2861 26.12 48.4195 25.4267 48.5528 24.68C48.6861 23.9067 48.7928 23.1467 48.8728 22.4C48.9795 21.6533 49.0461 20.9467 49.0728 20.28C49.0995 19.6133 49.0728 19.04 48.9928 18.56C48.9395 18.32 48.9528 18.2 49.0328 18.2C49.0861 18.2 49.1395 18.2267 49.1928 18.28C49.2461 18.3333 49.2861 18.3867 49.3128 18.44C49.6328 18.8933 49.8595 19.44 49.9928 20.08C50.1528 20.72 50.2461 21.3867 50.2728 22.08C50.3261 22.7733 50.3128 23.4667 50.2328 24.16C50.1795 24.8533 50.0861 25.4667 49.9528 26ZM46.3528 43.28C46.4328 43.8133 46.5128 44.2933 46.5928 44.72C46.6995 45.1467 46.8728 45.56 47.1128 45.96C47.1395 45.9867 47.1528 46.0267 47.1528 46.08C47.1795 46.16 47.1661 46.2 47.1128 46.2C46.9795 46.2 46.8461 46.1333 46.7128 46C46.4195 45.6533 46.1795 45.32 45.9928 45C45.8061 44.68 45.6328 44.12 45.4728 43.32C45.4195 43 45.3795 42.6133 45.3528 42.16C45.3261 41.7067 45.3261 41.2667 45.3528 40.84C45.3795 40.4133 45.4195 40.0667 45.4728 39.8C45.5528 39.5067 45.6461 39.36 45.7528 39.36C45.7795 39.36 45.8061 39.44 45.8328 39.6C45.8861 39.7333 45.9261 39.8933 45.9528 40.08C46.0061 40.24 46.0328 40.4133 46.0328 40.6C46.0595 40.76 46.0728 40.8667 46.0728 40.92C46.1528 41.7467 46.2461 42.5333 46.3528 43.28ZM57.7003 32.68C57.567 33.6133 57.5003 34.52 57.5003 35.4C57.5003 36.28 57.567 37.1067 57.7003 37.88C57.8336 38.6533 58.0203 39.36 58.2603 40C58.527 40.6133 58.8603 41.1333 59.2603 41.56C59.767 42.0933 60.4203 42.48 61.2203 42.72C62.047 42.9333 62.967 42.9733 63.9803 42.84C64.247 41.8 64.5536 40.8 64.9003 39.84C65.2736 38.88 65.6203 37.9467 65.9403 37.04C66.287 36.1333 66.5803 35.24 66.8203 34.36C67.0603 33.48 67.1803 32.6133 67.1803 31.76C67.1803 31.68 67.1936 31.64 67.2203 31.64C67.247 31.64 67.2736 31.68 67.3003 31.76C67.3536 31.84 67.3803 31.8933 67.3803 31.92C67.7003 32.9067 67.7936 33.9067 67.6603 34.92C67.5536 35.9067 67.327 36.92 66.9803 37.96C66.6603 39 66.287 40.0667 65.8603 41.16C65.4336 42.2267 65.087 43.3333 64.8203 44.48C64.687 44.9867 64.607 45.5733 64.5803 46.24C64.5536 46.9333 64.5936 47.6267 64.7003 48.32C64.8336 49.04 65.047 49.7467 65.3403 50.44C65.6603 51.1333 66.1003 51.7467 66.6603 52.28C66.687 52.3333 66.727 52.3867 66.7803 52.44L66.8203 52.48C66.8203 52.48 66.7803 52.48 66.7003 52.48C66.6736 52.48 66.647 52.4667 66.6203 52.44C65.9003 51.96 65.3003 51.4133 64.8203 50.8C64.367 50.1867 64.0203 49.5467 63.7803 48.88C63.567 48.24 63.4336 47.5867 63.3803 46.92C63.3536 46.28 63.3936 45.6933 63.5003 45.16C62.7003 45.3467 61.9003 45.3733 61.1003 45.24C60.327 45.1067 59.607 44.8667 58.9403 44.52C58.807 44.4667 58.6603 44.36 58.5003 44.2C58.367 44.04 58.3136 43.9467 58.3403 43.92C58.3403 43.92 58.5403 43.96 58.9403 44.04C59.367 44.0933 59.8336 44.16 60.3403 44.24C60.8736 44.2933 61.3936 44.3467 61.9003 44.4C62.4336 44.4267 62.8203 44.4267 63.0603 44.4C63.1403 44.3733 63.2203 44.36 63.3003 44.36C63.407 44.3333 63.527 44.2933 63.6603 44.24C63.6603 44.1067 63.6736 43.9867 63.7003 43.88C63.727 43.7467 63.767 43.6133 63.8203 43.48C62.887 43.6933 61.9803 43.72 61.1003 43.56C60.2203 43.4 59.4336 43.0267 58.7403 42.44C58.1803 41.96 57.727 41.3867 57.3803 40.72C57.0603 40.0267 56.807 39.28 56.6203 38.48C56.4603 37.68 56.367 36.8533 56.3403 36C56.3136 35.12 56.3403 34.2533 56.4203 33.4C56.527 32.04 56.7936 30.6667 57.2203 29.28C57.647 27.8933 58.207 26.6133 58.9003 25.44C59.6203 24.24 60.4603 23.2133 61.4203 22.36C62.407 21.48 63.5136 20.8667 64.7403 20.52C65.3003 20.36 65.9003 20.2933 66.5403 20.32C67.1803 20.3467 67.7803 20.4667 68.3403 20.68C68.9003 20.8933 69.3803 21.2 69.7803 21.6C70.207 21.9733 70.4736 22.4533 70.5803 23.04C70.7136 23.68 70.6603 24.3067 70.4203 24.92C70.1803 25.5067 69.847 26.0267 69.4203 26.48C68.9936 26.9067 68.5136 27.2133 67.9803 27.4C67.447 27.5867 66.9403 27.5733 66.4603 27.36C66.2736 27.3067 66.2336 27.2533 66.3403 27.2C66.3936 27.1733 66.4336 27.1733 66.4603 27.2C66.487 27.2267 66.527 27.24 66.5803 27.24C66.9003 27.2933 67.2603 27.2267 67.6603 27.04C68.0603 26.8533 68.4203 26.5867 68.7403 26.24C69.087 25.8933 69.3536 25.4933 69.5403 25.04C69.7536 24.56 69.8203 24.08 69.7403 23.6C69.6603 23.2 69.487 22.8533 69.2203 22.56C68.9803 22.2667 68.6603 22.0267 68.2603 21.84C67.8603 21.6533 67.407 21.5333 66.9003 21.48C66.4203 21.4267 65.9003 21.4533 65.3403 21.56C64.3536 21.7467 63.4336 22.2 62.5803 22.92C61.727 23.6133 60.967 24.48 60.3003 25.52C59.6336 26.5333 59.0736 27.6667 58.6203 28.92C58.167 30.1733 57.8603 31.4267 57.7003 32.68ZM60.8603 45.88C61.2336 45.9333 61.447 45.9733 61.5003 46C61.5536 46.0267 61.3536 46.04 60.9003 46.04C60.1536 46.04 59.3936 45.92 58.6203 45.68C57.8736 45.44 57.167 45.1067 56.5003 44.68C55.8336 44.2267 55.2336 43.68 54.7003 43.04C54.167 42.4 53.767 41.6933 53.5003 40.92C52.9136 39.24 52.567 37.64 52.4603 36.12C52.3536 34.5733 52.4203 33.0267 52.6603 31.48C52.7936 30.6533 53.007 29.7067 53.3003 28.64C53.5936 27.5733 53.9936 26.48 54.5003 25.36C55.0336 24.24 55.687 23.1333 56.4603 22.04C57.2336 20.9467 58.167 19.9467 59.2603 19.04C60.407 18.08 61.687 17.4533 63.1003 17.16C64.5136 16.84 65.8603 16.7867 67.1403 17C68.4203 17.2133 69.5536 17.68 70.5403 18.4C71.527 19.0933 72.1803 19.96 72.5003 21C72.527 21.0533 72.567 21.16 72.6203 21.32C72.6736 21.48 72.6736 21.5733 72.6203 21.6C72.567 21.6267 72.5136 21.5733 72.4603 21.44C72.407 21.3067 72.3136 21.16 72.1803 21C71.0603 19.48 69.7936 18.52 68.3803 18.12C66.967 17.72 65.567 17.68 64.1803 18C62.8203 18.32 61.527 18.9333 60.3003 19.84C59.1003 20.72 58.1403 21.7067 57.4203 22.8C56.167 24.64 55.2336 26.6533 54.6203 28.84C54.007 31 53.7136 33.2 53.7403 35.44C53.767 36.5333 53.887 37.64 54.1003 38.76C54.3136 39.88 54.7003 40.9733 55.2603 42.04C55.7936 43.08 56.5803 43.9467 57.6203 44.64C58.687 45.3333 59.767 45.7467 60.8603 45.88ZM55.1803 30.72C55.367 29.3333 55.687 27.9733 56.1403 26.64C56.5936 25.28 57.1936 24.0533 57.9403 22.96C58.7136 21.8667 59.6603 20.92 60.7803 20.12C61.9003 19.32 63.2203 18.76 64.7403 18.44C65.247 18.3333 65.8203 18.2933 66.4603 18.32C67.127 18.32 67.7803 18.44 68.4203 18.68C69.087 18.8933 69.7003 19.2267 70.2603 19.68C70.847 20.1333 71.327 20.76 71.7003 21.56C72.047 22.3333 72.167 23.1067 72.0603 23.88C71.9803 24.6267 71.767 25.3067 71.4203 25.92C71.1003 26.5067 70.687 27 70.1803 27.4C69.7003 27.8 69.2203 28.0267 68.7403 28.08C68.6603 28.1067 68.5536 28.12 68.4203 28.12C68.3136 28.0933 68.2603 28.0533 68.2603 28C68.2603 27.9467 68.2736 27.9333 68.3003 27.96C68.327 27.96 68.4736 27.9067 68.7403 27.8C68.927 27.72 69.1403 27.5867 69.3803 27.4C69.647 27.1867 69.887 26.92 70.1003 26.6C70.3403 26.28 70.5536 25.9067 70.7403 25.48C70.927 25.0533 71.047 24.5867 71.1003 24.08C71.1536 23.5467 71.087 23.04 70.9003 22.56C70.7136 22.08 70.4336 21.6533 70.0603 21.28C69.7136 20.88 69.3003 20.5467 68.8203 20.28C68.3403 20.0133 67.847 19.84 67.3403 19.76C65.767 19.52 64.3403 19.7333 63.0603 20.4C61.7803 21.04 60.647 21.9333 59.6603 23.08C58.6736 24.2 57.847 25.4667 57.1803 26.88C56.5136 28.2667 56.007 29.5867 55.6603 30.84C55.6603 30.8667 55.6336 30.96 55.5803 31.12C55.527 31.28 55.4736 31.4533 55.4203 31.64C55.367 31.8267 55.3136 32 55.2603 32.16C55.2336 32.2933 55.207 32.36 55.1803 32.36C55.1536 32.36 55.127 32.2933 55.1003 32.16C55.1003 32 55.1003 31.8267 55.1003 31.64C55.127 31.4267 55.1403 31.24 55.1403 31.08C55.167 30.8933 55.1803 30.7733 55.1803 30.72ZM68.9003 44.84C68.7403 45.4267 68.5003 46.16 68.1803 47.04C67.887 47.9467 67.6203 48.7733 67.3803 49.52C67.3003 49.7333 67.2336 49.84 67.1803 49.84C67.0736 49.84 67.007 49.7867 66.9803 49.68C66.9803 49.6 66.9803 49.5333 66.9803 49.48C66.9003 48.76 66.887 48.0667 66.9403 47.4C66.9936 46.76 67.1003 46.12 67.2603 45.48C67.4203 44.84 67.607 44.2 67.8203 43.56C68.0603 42.92 68.3003 42.24 68.5403 41.52C68.8603 40.5867 69.1536 39.68 69.4203 38.8C69.687 37.8933 69.847 36.88 69.9003 35.76C69.9003 35.6267 69.9003 35.56 69.9003 35.56C69.927 35.5333 69.967 35.52 70.0203 35.52L70.1403 35.76C70.407 36.32 70.5136 37.0133 70.4603 37.84C70.4336 38.6667 70.327 39.52 70.1403 40.4C69.9536 41.28 69.727 42.12 69.4603 42.92C69.2203 43.72 69.0336 44.36 68.9003 44.84ZM69.0203 38.48C68.647 39.4933 68.2336 40.5467 67.7803 41.64C67.327 42.7333 66.8603 43.7867 66.3803 44.8C66.3536 44.8267 66.3003 44.92 66.2203 45.08C66.167 45.2133 66.1003 45.2667 66.0203 45.24C65.967 45.2133 65.9403 45.1333 65.9403 45C65.9403 44.84 65.9403 44.72 65.9403 44.64C65.9403 44.4 65.967 44.1067 66.0203 43.76C66.0736 43.3867 66.1403 43.0267 66.2203 42.68C66.3003 42.3067 66.3803 41.9467 66.4603 41.6C66.567 41.2533 66.6736 40.96 66.7803 40.72C66.8336 40.56 66.9536 40.1333 67.1403 39.44C67.327 38.72 67.5136 37.9467 67.7003 37.12C67.887 36.2667 68.0336 35.44 68.1403 34.64C68.247 33.84 68.247 33.24 68.1403 32.84C68.087 32.7067 68.087 32.6133 68.1403 32.56C68.1936 32.56 68.2336 32.6 68.2603 32.68C68.3136 32.7333 68.367 32.7867 68.4203 32.84C68.6603 33.2133 68.847 33.6533 68.9803 34.16C69.1136 34.64 69.1936 35.1467 69.2203 35.68C69.2736 36.1867 69.2736 36.6933 69.2203 37.2C69.1936 37.68 69.127 38.1067 69.0203 38.48ZM66.6603 50.28C66.9803 50.9467 67.367 51.5733 67.8203 52.16C67.9003 52.24 67.9136 52.3067 67.8603 52.36C67.7803 52.4133 67.7003 52.4133 67.6203 52.36C67.567 52.3333 67.527 52.3067 67.5003 52.28C67.127 52.0667 66.8203 51.8533 66.5803 51.64C66.3403 51.4267 66.1003 51.0133 65.8603 50.4C65.7803 50.1867 65.7003 49.9067 65.6203 49.56C65.567 49.24 65.527 48.92 65.5003 48.6C65.4736 48.3067 65.4603 48.0533 65.4603 47.84C65.487 47.6267 65.5403 47.5333 65.6203 47.56C65.7536 47.56 65.8603 47.72 65.9403 48.04C66.047 48.36 66.1136 48.56 66.1403 48.64C66.247 48.9333 66.327 49.2133 66.3803 49.48C66.4336 49.7467 66.527 50.0133 66.6603 50.28ZM85.3097 17.36C85.2564 17.28 85.1764 17.16 85.0697 17C84.9897 16.8133 84.9764 16.6933 85.0297 16.64C85.083 16.5867 85.163 16.6 85.2697 16.68C85.403 16.76 85.483 16.8133 85.5097 16.84C85.9897 17.1867 86.4297 17.6667 86.8297 18.28C87.2564 18.8933 87.6297 19.5733 87.9497 20.32C88.2964 21.04 88.603 21.8 88.8697 22.6C89.1364 23.4 89.3497 24.16 89.5097 24.88C89.9097 26.64 90.243 28.3733 90.5097 30.08C90.803 31.7867 90.9497 33.5467 90.9497 35.36C90.9497 35.4133 90.9497 35.5733 90.9497 35.84C90.9764 36.1067 90.9364 36.2667 90.8297 36.32C90.7497 36.2667 90.6564 36.1333 90.5497 35.92C90.4697 35.7067 90.4164 35.56 90.3897 35.48C90.0697 34.4933 89.7764 33.3733 89.5097 32.12C89.2697 30.84 89.043 29.68 88.8297 28.64C88.6697 27.84 88.523 27.08 88.3897 26.36C88.2564 25.6133 88.0964 24.8933 87.9097 24.2C87.7497 23.5067 87.5497 22.8133 87.3097 22.12C87.0964 21.4 86.8297 20.6533 86.5097 19.88C86.4564 19.7733 86.363 19.5867 86.2297 19.32C86.123 19.0533 86.003 18.7867 85.8697 18.52C85.7364 18.2533 85.6164 18.0133 85.5097 17.8C85.403 17.56 85.3364 17.4133 85.3097 17.36ZM94.9097 47C94.6164 46.84 94.4164 46.7333 94.3097 46.68C94.203 46.6533 94.003 46.5467 93.7097 46.36C93.0697 45.9867 92.483 45.5067 91.9497 44.92C91.4164 44.3067 90.9364 43.64 90.5097 42.92C90.083 42.2 89.6964 41.44 89.3497 40.64C89.0297 39.8133 88.7497 39 88.5097 38.2C87.9764 38.5467 87.3364 38.76 86.5897 38.84C85.8697 38.8933 85.203 38.92 84.5897 38.92C83.8164 38.92 83.043 38.8933 82.2697 38.84C81.523 38.7867 80.763 38.76 79.9897 38.76C79.243 40.1467 78.5364 41.4933 77.8697 42.8C77.2297 44.08 76.723 45.28 76.3497 46.4C76.3497 46.4267 76.3364 46.48 76.3097 46.56C76.283 46.6667 76.243 46.72 76.1897 46.72C76.1097 46.72 76.0697 46.6267 76.0697 46.44C76.0697 46.2533 76.0697 46.1333 76.0697 46.08C76.0697 45.0133 76.323 43.8267 76.8297 42.52C77.363 41.1867 77.9497 39.88 78.5897 38.6L77.9897 38.56C77.8297 38.9333 77.603 39.4533 77.3097 40.12C77.043 40.7867 76.7764 41.48 76.5097 42.2C76.2697 42.92 76.043 43.6133 75.8297 44.28C75.643 44.9467 75.5497 45.48 75.5497 45.88C75.5497 45.96 75.5097 46 75.4297 46C75.323 46 75.243 45.92 75.1897 45.76C75.1364 45.5733 75.083 45.3733 75.0297 45.16C75.003 44.9467 74.9764 44.7333 74.9497 44.52C74.9497 44.28 74.9497 44.12 74.9497 44.04C74.9497 43.1067 75.0697 42.1333 75.3097 41.12C75.5497 40.08 75.8697 39.1333 76.2697 38.28L75.7497 38.2C75.5097 38.7867 75.283 39.3733 75.0697 39.96C74.8564 40.52 74.6697 41.1067 74.5097 41.72C74.5097 41.7733 74.4964 41.84 74.4697 41.92C74.443 42 74.403 42.0267 74.3497 42C74.2964 41.8933 74.2564 41.7733 74.2297 41.64C74.2297 41.48 74.2297 41.3467 74.2297 41.24C74.2297 40.12 74.4297 39.04 74.8297 38C74.963 37.7333 75.0964 37.6 75.2297 37.6C75.7897 37.44 76.3497 37.3467 76.9097 37.32C77.4964 37.2933 78.0964 37.28 78.7097 37.28C80.043 37.28 81.363 37.3867 82.6697 37.6C83.9764 37.7867 85.283 37.88 86.5897 37.88C87.2297 37.88 87.8164 37.8267 88.3497 37.72L88.2697 37.08C87.9764 37.16 87.6564 37.2133 87.3097 37.24C86.9897 37.2667 86.683 37.28 86.3897 37.28C85.3497 37.28 84.2697 37.1733 83.1497 36.96C82.0564 36.7467 81.003 36.4933 79.9897 36.2C79.9364 36.1467 79.8297 36.1067 79.6697 36.08C79.5097 36.0267 79.4297 35.96 79.4297 35.88C79.4297 35.8267 79.5097 35.7867 79.6697 35.76C79.8297 35.7067 79.9364 35.68 79.9897 35.68C80.363 35.6533 80.723 35.64 81.0697 35.64C81.443 35.6133 81.8164 35.6 82.1897 35.6C82.803 35.6 83.4164 35.6133 84.0297 35.64C84.643 35.64 85.2697 35.64 85.9097 35.64C86.2297 35.64 86.563 35.64 86.9097 35.64C87.2564 35.64 87.5897 35.6267 87.9097 35.6L87.8297 35.16H87.3097C86.0297 35.16 84.7497 35.04 83.4697 34.8C82.2164 34.56 80.9497 34.44 79.6697 34.44C78.5764 34.44 77.603 34.5733 76.7497 34.84C75.923 35.1067 75.203 35.4133 74.5897 35.76C74.003 36.1067 73.523 36.4533 73.1497 36.8C72.7764 37.1467 72.5097 37.4 72.3497 37.56C72.2964 37.5867 72.2697 37.6 72.2697 37.6C72.243 37.6 72.2297 37.5733 72.2297 37.52C72.2297 37.4933 72.243 37.4667 72.2697 37.44C72.7497 36.5067 73.3364 35.7333 74.0297 35.12C74.723 34.48 75.5764 34 76.5897 33.68C77.603 31.52 78.643 29.3733 79.7097 27.24C80.803 25.1067 81.9497 23 83.1497 20.92C83.1764 20.8667 83.2297 20.7867 83.3097 20.68C83.3897 20.5467 83.4697 20.48 83.5497 20.48C83.5764 20.5067 83.5897 20.5333 83.5897 20.56V20.64C83.5897 20.8533 83.5764 21.0133 83.5497 21.12C83.043 23.28 82.2964 25.36 81.3097 27.36C80.323 29.36 79.3097 31.3333 78.2697 33.28L79.0297 33.24C79.1097 33.08 79.3097 32.7333 79.6297 32.2C79.9764 31.6667 80.3364 31.12 80.7097 30.56C81.1097 29.9733 81.4697 29.4533 81.7897 29C82.1097 28.52 82.3097 28.28 82.3897 28.28L82.4297 28.4C82.4297 28.5333 82.3497 28.8267 82.1897 29.28C82.0297 29.7333 81.843 30.2267 81.6297 30.76C81.4164 31.2933 81.203 31.8 80.9897 32.28C80.803 32.7333 80.6697 33.0533 80.5897 33.24C80.7497 33.24 80.9097 33.2533 81.0697 33.28C81.2297 33.28 81.3897 33.28 81.5497 33.28C82.0297 32.32 82.5364 31.32 83.0697 30.28C83.6297 29.2133 84.1097 28.1333 84.5097 27.04C84.9097 25.9467 85.1764 24.84 85.3097 23.72C85.4697 22.6 85.3897 21.4933 85.0697 20.4C85.0697 20.5333 85.0297 20.8 84.9497 21.2C84.8964 21.6 84.8164 22.0267 84.7097 22.48C84.603 22.9067 84.4964 23.2933 84.3897 23.64C84.283 23.96 84.1764 24.12 84.0697 24.12C83.9897 24.12 83.9497 24.0667 83.9497 23.96C83.9764 23.8533 83.9897 23.7867 83.9897 23.76C83.9897 23.0667 84.0297 22.3867 84.1097 21.72C84.2164 21.0267 84.2697 20.3333 84.2697 19.64C84.2697 18.7067 84.123 17.8 83.8297 16.92C83.8297 16.8933 83.7897 16.7867 83.7097 16.6C83.6297 16.3867 83.6564 16.28 83.7897 16.28C83.843 16.28 83.9364 16.3467 84.0697 16.48C84.3364 16.7467 84.5897 17.1067 84.8297 17.56C85.0964 18.0133 85.3364 18.5067 85.5497 19.04C85.763 19.5467 85.963 20.0533 86.1497 20.56C86.3364 21.0667 86.483 21.4933 86.5897 21.84C86.9364 22.9867 87.2164 24.1467 87.4297 25.32C87.6697 26.4667 87.8697 27.6267 88.0297 28.8C88.2164 29.9467 88.403 31.1067 88.5897 32.28C88.7764 33.4533 88.9897 34.6133 89.2297 35.76C89.4697 36.88 89.7497 37.9733 90.0697 39.04C90.4164 40.1067 90.8297 41.12 91.3097 42.08C91.7897 43.04 92.3364 43.9333 92.9497 44.76C93.5897 45.56 94.323 46.2667 95.1497 46.88C95.283 47.0133 95.323 47.0933 95.2697 47.12C95.243 47.1733 95.123 47.1333 94.9097 47ZM94.8297 43.6C94.8564 43.76 94.843 43.84 94.7897 43.84C94.7364 43.8133 94.6697 43.76 94.5897 43.68C94.5364 43.6 94.4697 43.5067 94.3897 43.4C94.3364 43.2933 94.3097 43.2267 94.3097 43.2C93.6697 42.0267 93.163 40.84 92.7897 39.64C92.4164 38.4133 92.123 37.1867 91.9097 35.96C91.6964 34.7067 91.5097 33.4533 91.3497 32.2C91.2164 30.92 91.043 29.6267 90.8297 28.32C90.643 26.9867 90.3897 25.64 90.0697 24.28C89.7497 22.92 89.2964 21.5333 88.7097 20.12C88.683 20.0667 88.643 19.9733 88.5897 19.84C88.5364 19.7067 88.5364 19.6267 88.5897 19.6C88.643 19.6 88.7097 19.64 88.7897 19.72L88.9497 19.88C89.5364 20.5733 90.0564 21.4933 90.5097 22.64C90.963 23.7867 91.363 25.0133 91.7097 26.32C92.0564 27.6267 92.3364 28.92 92.5497 30.2C92.7897 31.48 92.9764 32.6 93.1097 33.56C93.323 35.08 93.5497 36.68 93.7897 38.36C94.0297 40.04 94.3364 41.6267 94.7097 43.12L94.8297 43.6ZM82.9497 33.44C83.723 33.52 84.483 33.6133 85.2297 33.72C86.003 33.8267 86.7764 33.9067 87.5497 33.96C87.2564 32.5467 87.003 31.1467 86.7897 29.76C86.5764 28.3733 86.3764 26.96 86.1897 25.52C85.843 26.9067 85.363 28.2533 84.7497 29.56C84.163 30.8667 83.563 32.16 82.9497 33.44ZM96.1097 46.56C95.5764 46.32 95.1097 46.0933 94.7097 45.88C94.3097 45.64 93.963 45.32 93.6697 44.92C93.2164 44.3067 92.8564 43.6933 92.5897 43.08C92.3497 42.4667 92.1497 41.8933 91.9897 41.36C91.9364 41.1467 91.883 40.9067 91.8297 40.64C91.803 40.3733 91.8164 40.24 91.8697 40.24C91.9764 40.24 92.1097 40.4133 92.2697 40.76C92.4297 41.1067 92.5764 41.4 92.7097 41.64C93.1097 42.4667 93.6164 43.3067 94.2297 44.16C94.843 44.9867 95.5097 45.6667 96.2297 46.2C96.443 46.3867 96.5097 46.5067 96.4297 46.56C96.3497 46.6133 96.243 46.6133 96.1097 46.56ZM72.4697 38.88C72.4697 38.88 72.443 38.88 72.3897 38.88H72.3497C72.3497 38.8 72.363 38.72 72.3897 38.64C72.4164 38.56 72.443 38.48 72.4697 38.4C72.683 37.9467 72.883 37.6133 73.0697 37.4C73.283 37.16 73.6164 36.9067 74.0697 36.64C74.3364 36.48 74.7097 36.32 75.1897 36.16C75.6697 36 76.0564 35.92 76.3497 35.92C76.403 35.92 76.4697 35.9333 76.5497 35.96C76.6564 35.96 76.7097 36 76.7097 36.08C76.7097 36.16 76.563 36.2667 76.2697 36.4C76.003 36.5333 75.8297 36.6267 75.7497 36.68C74.7364 37.2933 73.9897 37.76 73.5097 38.08C73.0297 38.4 72.683 38.6667 72.4697 38.88ZM106.674 38.28C107.528 39.0533 108.328 39.88 109.074 40.76C109.821 41.6133 110.541 42.5067 111.234 43.44C111.261 43.4933 111.328 43.6 111.434 43.76C111.568 43.8933 111.608 43.9867 111.554 44.04C111.528 44.0667 111.421 44.0533 111.234 44C111.074 43.92 110.968 43.8533 110.914 43.8C110.701 43.6667 110.448 43.4933 110.154 43.28C109.888 43.0667 109.594 42.84 109.274 42.6C108.981 42.36 108.688 42.12 108.394 41.88C108.101 41.6133 107.861 41.3733 107.674 41.16C107.541 41.0533 107.221 40.7867 106.714 40.36C106.208 39.9067 105.634 39.4267 104.994 38.92C104.354 38.4133 103.701 37.9467 103.034 37.52C102.368 37.0933 101.821 36.8267 101.394 36.72C101.314 36.6933 101.194 36.6533 101.034 36.6C100.901 36.5467 100.848 36.4533 100.874 36.32C101.088 35.3067 101.354 34.32 101.674 33.36C101.994 32.4 102.301 31.4133 102.594 30.4C102.968 29.1467 103.314 27.8667 103.634 26.56C103.981 25.2533 104.181 23.84 104.234 22.32C104.234 22.1867 104.248 22.12 104.274 22.12C104.354 22.12 104.421 22.2133 104.474 22.4C104.794 23.12 104.928 24.0533 104.874 25.2C104.821 26.3467 104.674 27.5467 104.434 28.8C104.221 30.0267 103.941 31.2133 103.594 32.36C103.274 33.48 102.994 34.3733 102.754 35.04L102.634 35.36C103.621 34.6933 104.648 34.0267 105.714 33.36C106.781 32.6933 107.768 32.0267 108.674 31.36C109.608 30.6667 110.408 29.96 111.074 29.24C111.768 28.4933 112.234 27.72 112.474 26.92C112.634 26.3867 112.608 25.8533 112.394 25.32C112.208 24.7867 111.861 24.2933 111.354 23.84C110.874 23.36 110.261 22.9467 109.514 22.6C108.768 22.2533 107.941 22.0133 107.034 21.88C105.834 21.72 104.621 21.68 103.394 21.76C103.501 22.56 103.514 23.3733 103.434 24.2C103.381 25 103.288 25.6933 103.154 26.28C102.808 27.72 102.368 29.2133 101.834 30.76C101.301 32.28 100.754 33.7067 100.194 35.04C100.141 35.12 100.061 35.2533 99.9544 35.44C99.8477 35.6267 99.7544 35.7067 99.6744 35.68C99.621 35.6533 99.6077 35.5333 99.6344 35.32C99.661 35.1067 99.6744 34.96 99.6744 34.88C99.701 34.56 99.7544 34.1733 99.8344 33.72C99.941 33.24 100.034 32.7467 100.114 32.24C100.221 31.7333 100.328 31.2533 100.434 30.8C100.568 30.32 100.688 29.9067 100.794 29.56C100.848 29.4 100.928 29.0667 101.034 28.56C101.168 28.0267 101.301 27.4 101.434 26.68C101.568 25.96 101.701 25.1867 101.834 24.36C101.968 23.5333 102.074 22.7333 102.154 21.96L101.594 22.04C101.514 23.0533 101.354 24.08 101.114 25.12C100.874 26.16 100.594 27.2133 100.274 28.28C99.981 29.32 99.661 30.3867 99.3144 31.48C98.9944 32.5467 98.7144 33.6 98.4744 34.64C98.261 35.5733 98.0877 36.5467 97.9544 37.56C97.8477 38.5733 97.8077 39.5733 97.8344 40.56C97.8877 41.5467 98.0077 42.5067 98.1944 43.44C98.4077 44.3467 98.741 45.1733 99.1944 45.92C99.2477 46.0533 99.2477 46.12 99.1944 46.12C99.141 46.12 99.0744 46.08 98.9944 46C98.3277 45.2267 97.821 44.36 97.4744 43.4C97.1277 42.44 96.901 41.44 96.7944 40.4C96.7144 39.3333 96.7277 38.24 96.8344 37.12C96.9677 36 97.1544 34.9067 97.3944 33.84C97.8477 31.84 98.3944 29.8667 99.0344 27.92C99.6744 25.9733 100.208 24.0933 100.634 22.28C99.9677 22.44 99.3144 22.64 98.6744 22.88C98.0344 23.0933 97.4344 23.3333 96.8744 23.6C96.741 23.6533 96.661 23.6667 96.6344 23.64C96.6077 23.6133 96.621 23.5733 96.6744 23.52C96.7277 23.44 96.781 23.3867 96.8344 23.36C98.1677 22.2667 99.7944 21.4933 101.714 21.04C103.634 20.5867 105.594 20.4667 107.594 20.68C108.634 20.8133 109.581 21.1067 110.434 21.56C111.314 22.0133 112.034 22.5733 112.594 23.24C113.154 23.88 113.514 24.6 113.674 25.4C113.861 26.2 113.781 27 113.434 27.8C113.034 28.7333 112.394 29.6 111.514 30.4C110.661 31.2 109.688 31.9467 108.594 32.64C107.528 33.3333 106.394 33.9733 105.194 34.56C103.994 35.1467 102.874 35.6933 101.834 36.2C102.261 36.2 102.701 36.2667 103.154 36.4C103.608 36.5333 104.048 36.7067 104.474 36.92C104.928 37.1067 105.341 37.32 105.714 37.56C106.114 37.8 106.434 38.04 106.674 38.28ZM117.754 28.28C117.354 29.6667 116.741 30.8533 115.914 31.84C115.114 32.8 114.221 33.6 113.234 34.24C112.248 34.88 111.248 35.3733 110.234 35.72C109.221 36.04 108.341 36.2533 107.594 36.36C107.381 36.4133 107.181 36.44 106.994 36.44C106.834 36.4133 106.768 36.3733 106.794 36.32C106.741 36.2667 106.794 36.2133 106.954 36.16C107.141 36.1067 107.328 36.04 107.514 35.96C108.954 35.4267 110.341 34.7333 111.674 33.88C113.008 33.0267 114.181 31.8933 115.194 30.48C115.674 29.8133 116.034 29.04 116.274 28.16C116.514 27.28 116.594 26.3867 116.514 25.48C116.461 24.5733 116.234 23.6933 115.834 22.84C115.461 21.9867 114.901 21.2533 114.154 20.64C113.274 19.8933 112.314 19.3067 111.274 18.88C110.234 18.4533 109.168 18.16 108.074 18C106.981 17.84 105.874 17.8133 104.754 17.92C103.634 18 102.554 18.1733 101.514 18.44C101.328 18.4933 101.221 18.5333 101.194 18.56C101.168 18.56 101.141 18.5333 101.114 18.48C101.114 18.4533 101.221 18.36 101.434 18.2C101.861 17.9333 102.421 17.6933 103.114 17.48C103.834 17.24 104.634 17.08 105.514 17C106.421 16.92 107.394 16.9333 108.434 17.04C109.474 17.12 110.541 17.36 111.634 17.76C112.754 18.1333 113.808 18.72 114.794 19.52C115.781 20.2933 116.568 21.2533 117.154 22.4C117.714 23.52 117.994 24.6133 117.994 25.68C118.021 26.72 117.941 27.5867 117.754 28.28ZM97.4344 21.76C97.9677 20.9867 98.6744 20.36 99.5544 19.88C100.434 19.3733 101.394 19 102.434 18.76C103.474 18.52 104.554 18.4133 105.674 18.44C106.821 18.4667 107.928 18.6 108.994 18.84C110.061 19.08 111.048 19.44 111.954 19.92C112.888 20.4 113.661 20.9867 114.274 21.68C114.701 22.1867 115.021 22.7333 115.234 23.32C115.474 23.88 115.594 24.4667 115.594 25.08C115.621 25.6667 115.554 26.24 115.394 26.8C115.261 27.36 115.061 27.88 114.794 28.36C114.741 28.4667 114.608 28.6533 114.394 28.92C114.181 29.16 114.048 29.2533 113.994 29.2C113.941 29.1733 113.981 29.0267 114.114 28.76C114.248 28.4933 114.341 28.2933 114.394 28.16C114.608 27.4667 114.688 26.7867 114.634 26.12C114.608 25.4267 114.474 24.7867 114.234 24.2C114.021 23.6133 113.728 23.0933 113.354 22.64C112.981 22.16 112.581 21.7733 112.154 21.48C111.141 20.8133 109.994 20.3467 108.714 20.08C107.434 19.7867 106.128 19.68 104.794 19.76C103.488 19.8133 102.208 20.04 100.954 20.44C99.701 20.8133 98.621 21.32 97.7144 21.96C97.4744 22.1733 97.3144 22.24 97.2344 22.16C97.181 22.1333 97.181 22.08 97.2344 22C97.3144 21.8933 97.381 21.8133 97.4344 21.76ZM118.754 46.96C118.914 46.9333 118.994 46.9467 118.994 47C118.994 47.0533 118.928 47.1067 118.794 47.16C117.834 47.5067 116.901 47.6933 115.994 47.72C115.088 47.7467 114.221 47.6533 113.394 47.44C112.568 47.2533 111.794 46.9733 111.074 46.6C110.354 46.2533 109.701 45.8667 109.114 45.44C108.421 44.9333 107.754 44.3733 107.114 43.76C106.501 43.12 105.901 42.4933 105.314 41.88C104.728 41.24 104.141 40.6267 103.554 40.04C102.968 39.4533 102.368 38.9333 101.754 38.48C101.301 39.9733 100.888 41.2933 100.514 42.44C100.461 42.5733 100.408 42.6933 100.354 42.8C100.301 42.9067 100.248 42.9467 100.194 42.92C100.141 42.8933 100.114 42.8267 100.114 42.72C100.114 42.5867 100.114 42.4533 100.114 42.32C100.168 41.5733 100.221 40.8133 100.274 40.04C100.328 39.2667 100.448 38.4933 100.634 37.72C100.448 37.6133 100.261 37.52 100.074 37.44C99.9144 37.36 99.7277 37.2667 99.5144 37.16C99.4344 37.08 99.3944 37.0267 99.3944 37C99.3944 36.9733 99.421 36.96 99.4744 36.96C99.5544 36.96 99.621 36.96 99.6744 36.96C100.741 37.04 101.714 37.3733 102.594 37.96C103.474 38.52 104.328 39.1867 105.154 39.96C105.981 40.7333 106.794 41.56 107.594 42.44C108.394 43.2933 109.248 44.0533 110.154 44.72C110.661 45.0933 111.234 45.44 111.874 45.76C112.541 46.0533 113.248 46.3067 113.994 46.52C114.741 46.7333 115.514 46.88 116.314 46.96C117.141 47.0667 117.954 47.0667 118.754 46.96ZM112.554 41.12C113.301 41.7867 114.008 42.5333 114.674 43.36C115.368 44.1867 116.034 44.8533 116.674 45.36C116.861 45.5467 116.941 45.68 116.914 45.76C116.861 45.8133 116.794 45.8267 116.714 45.8C116.634 45.7733 116.541 45.7467 116.434 45.72C115.714 45.48 115.034 45.1467 114.394 44.72C113.781 44.2933 113.181 43.8133 112.594 43.28C112.008 42.7467 111.434 42.1867 110.874 41.6C110.341 41.0133 109.794 40.44 109.234 39.88C108.861 39.5067 108.448 39.0933 107.994 38.64C107.568 38.1867 107.114 37.7733 106.634 37.4C106.154 37 105.648 36.68 105.114 36.44C104.608 36.1733 104.074 36.04 103.514 36.04L105.074 35.36C105.474 35.1733 105.968 34.9467 106.554 34.68C107.141 34.4133 107.701 34.16 108.234 33.92C108.768 33.68 109.234 33.4933 109.634 33.36C110.034 33.2 110.248 33.1333 110.274 33.16C110.301 33.2133 110.248 33.3067 110.114 33.44C110.008 33.5733 109.848 33.72 109.634 33.88C109.448 34.04 109.261 34.1867 109.074 34.32C108.888 34.4533 108.754 34.5333 108.674 34.56C108.168 34.8533 107.688 35.1333 107.234 35.4C106.808 35.64 106.368 35.8667 105.914 36.08C106.528 36.32 107.154 36.6667 107.794 37.12C108.434 37.5467 109.048 38.0133 109.634 38.52C110.221 39.0267 110.768 39.52 111.274 40C111.781 40.4533 112.208 40.8267 112.554 41.12ZM99.5944 43.6C99.6744 44.0533 99.781 44.4933 99.9144 44.92C100.048 45.3467 100.208 45.7067 100.394 46C100.421 46 100.434 46.0133 100.434 46.04C100.461 46.0933 100.448 46.12 100.394 46.12C100.341 46.12 100.274 46.0933 100.194 46.04C100.141 46.0133 100.088 46 100.034 46C99.6877 45.7867 99.4077 45.5333 99.1944 45.24C99.0077 44.92 98.8477 44.3733 98.7144 43.6C98.661 43.3067 98.6344 42.9333 98.6344 42.48C98.6344 42.0267 98.6477 41.6 98.6744 41.2C98.701 40.7733 98.741 40.4133 98.7944 40.12C98.8477 39.8267 98.9277 39.68 99.0344 39.68C99.061 39.68 99.0877 39.7467 99.1144 39.88C99.1677 40.0133 99.2077 40.1733 99.2344 40.36C99.261 40.52 99.2744 40.68 99.2744 40.84C99.301 41 99.3144 41.1067 99.3144 41.16C99.3677 41.6133 99.4077 42.04 99.4344 42.44C99.461 42.84 99.5144 43.2267 99.5944 43.6ZM117.114 46.12C117.541 46.1467 117.861 46.1467 118.074 46.12C118.314 46.12 118.621 46.0933 118.994 46.04C119.021 46.04 119.088 46.0267 119.194 46C119.301 46 119.368 46.0133 119.394 46.04C119.421 46.0933 119.381 46.16 119.274 46.24C119.194 46.32 119.128 46.3733 119.074 46.4C118.648 46.5333 118.248 46.6267 117.874 46.68C117.528 46.7333 117.008 46.72 116.314 46.64C116.074 46.6133 115.808 46.56 115.514 46.48C115.221 46.4 114.954 46.3067 114.714 46.2C114.474 46.12 114.288 46.04 114.154 45.96C114.021 45.8533 113.994 45.7733 114.074 45.72C114.128 45.6933 114.288 45.72 114.554 45.8C114.848 45.8533 115.048 45.8933 115.154 45.92C115.528 46 115.874 46.0533 116.194 46.08C116.514 46.1067 116.821 46.12 117.114 46.12Z" fill="white"/>
</svg>
